<svg width="17" height="17" viewBox="0 0 17 17" fill="none" xmlns="http://www.w3.org/2000/svg">
<path d="M15.7496 0.321287C15.6998 0.354168 13.6549 2.7106 11.2081 5.55293C8.76132 8.39525 6.70574 10.7553 6.64528 10.7919C6.54214 10.8576 6.52081 10.8576 6.39633 10.8101C6.30742 10.7773 5.74907 10.2767 4.7035 9.30129C3.31295 7.99704 3.12091 7.82898 2.87908 7.71207C2.64436 7.59882 2.57323 7.58055 2.27094 7.56959C1.73037 7.54767 1.3854 7.67554 1.02265 8.02992C0.787926 8.26008 0.595882 8.61446 0.528311 8.93961C0.446514 9.35244 0.546093 9.87853 0.773701 10.2219C0.827046 10.3023 1.85128 11.6029 3.05334 13.1154C4.77462 15.2819 5.27252 15.8883 5.41833 15.987C5.69573 16.1769 5.9589 16.2573 6.2932 16.2573C6.75553 16.2573 7.1325 16.0966 7.44902 15.7605C7.54504 15.6618 9.28767 12.8122 11.9692 8.37699C14.3697 4.40211 16.372 1.08484 16.4182 1.00447C16.4609 0.924095 16.5 0.81084 16.5 0.75604C16.5 0.598944 16.3969 0.401662 16.2724 0.324941C16.1337 0.237259 15.8741 0.233606 15.7496 0.321287Z" fill="#32B87D"/>
</svg>
