<svg width="35" height="36" viewBox="0 0 35 36" fill="none" xmlns="http://www.w3.org/2000/svg">
<rect y="0.757812" width="35" height="35" rx="17.5" fill="#2CCAB9" fill-opacity="0.15"/>
<path d="M24.7496 10.3218C24.6998 10.3547 22.6549 12.7111 20.2081 15.5534C17.7613 18.3957 15.7057 20.7558 15.6453 20.7924C15.5421 20.8581 15.5208 20.8581 15.3963 20.8106C15.3074 20.7777 14.7491 20.2772 13.7035 19.3018C12.313 17.9975 12.1209 17.8295 11.8791 17.7126C11.6444 17.5993 11.5732 17.581 11.2709 17.5701C10.7304 17.5482 10.3854 17.676 10.0226 18.0304C9.78793 18.2606 9.59588 18.6149 9.52831 18.9401C9.44651 19.3529 9.54609 19.879 9.7737 20.2224C9.82705 20.3028 10.8513 21.6034 12.0533 23.1159C13.7746 25.2824 14.2725 25.8888 14.4183 25.9875C14.6957 26.1774 14.9589 26.2578 15.2932 26.2578C15.7555 26.2578 16.1325 26.0971 16.449 25.761C16.545 25.6623 18.2877 22.8127 20.9692 18.3775C23.3697 14.4026 25.372 11.0853 25.4182 11.005C25.4609 10.9246 25.5 10.8113 25.5 10.7565C25.5 10.5994 25.3969 10.4022 25.2724 10.3254C25.1337 10.2377 24.8741 10.2341 24.7496 10.3218Z" fill="#32B87D"/>
</svg>
