<svg width="512" height="512" viewBox="0 0 512 512" fill="none" xmlns="http://www.w3.org/2000/svg">
<path d="M129.6 23.7C129.5 23.8 125 24.6 119.5 25.4C100.9 28.2 82 35.2 68.3 44.4C65.4 46.3 63 47.8 63 47.6C63 45.8 39.4 68.8 33.7 76C30.9 79.6 28 83.1 27.1 83.7C26.3 84.4 25.9 85 26.3 85C26.7 85 25.5 87.4 23.6 90.2C14.3 104.9 6.89995 123.5 2.89995 142.3C-4.9409e-05 155.9 -0.200049 179.4 2.39995 196C3.49995 202.3 4.39995 208.4 4.49995 209.6C4.59995 210.7 4.89995 212 5.19995 212.6C5.49995 213.1 6.29995 216 6.99995 219C8.49995 225.7 10.1 228.8 13.2 231.7C18.4 236.6 21.1 237 49.4 237C75 237 75.9 236.9 76.5 235C76.8 233.9 77.6 233 78.1 233C78.6 233 78.9 232.7 78.9 232.2C78.5 230.1 79.2 228 80.5 226.6C81.4 225.8 82.1 224.8 82 224.5C81.9 222.1 82.2 221 83.3 219.8C84.8 218.4 85 217.8 85 215.6C85 214.8 85.6 213.5 86.3 212.8C87.8 211.4 88 210.8 88 208.6C88 207.8 88.6 206.5 89.3 205.8C90.8 204.4 91 203.8 91 201.6C91 200.8 91.6 199.5 92.2 198.8C92.9 198.1 93.6 196.6 93.8 195.5C94 194.4 94.9 192.9 95.8 192.2C96.7 191.5 97.4 190.8 97.2 190.7C96.5 190.3 98.2 187 99.1 187C99.6 187 100.9 186.1 102 185C103.2 183.8 104.5 183.2 105 183.5C105.6 183.9 106 183.7 106 183.1C106 182.6 107.7 182 109.8 181.8L113.5 181.5L113.7 175C114.8 146.3 121.9 117.7 134.4 91.5C144.9 69.6 156.2 53.7 171.9 38.8L181 30.1L177 29C174.8 28.5 171.3 27.6 169.3 27C162.8 25.4 149.9 24 139.7 23.7C134.3 23.6 129.7 23.6 129.6 23.7Z" fill="#129F90"/>
<path d="M104.1 244C97.4 259.6 94.8 263.3 88.9 265C87.1 265.6 74.1 266 60.2 266H34.8L31.9 268.9C30.1 270.7 29 272.9 29 274.6C29 280 49.1 312.8 64.4 332.3C68.5 337.6 71.7 342 71.4 342C71 342 71.7 342.8 72.8 343.7C73.9 344.7 78.5 349.8 83.1 355C90.8 363.9 121 395.1 121 394.2C121 394 125.3 397.7 130.6 402.5C135.8 407.2 147 416.5 155.3 423.1C163.7 429.6 171.7 436.1 173.3 437.4C174.8 438.7 176 439.6 176 439.4C176 439 196.8 453.5 199.6 455.8C200.7 456.7 202 457.6 202.4 457.6C202.8 457.7 208.4 461.1 214.8 465.1C227.3 472.8 254.8 488 256.5 488C257.1 488 258.2 487.5 259 487C260.2 486.2 259.2 484.7 253.4 478.8C213.3 437.6 174.4 383 153.5 338.8C149.6 330.6 148 328 146.1 327.5C142.5 326.6 136.9 322 135.8 319.1C135.3 317.7 134.9 316.3 135 316.1C135.1 315.9 134.8 315.4 134.3 315.1C133.8 314.8 128.3 295.4 122.1 272C115.9 248.6 110.7 229.4 110.6 229.3C110.5 229.2 107.6 235.8 104.1 244Z" fill="#129F90"/>
<path d="M134.8 23.7C137.1 23.9 140.9 23.9 143.3 23.7C145.6 23.5 143.7 23.3 139 23.3C134.3 23.3 132.4 23.5 134.8 23.7Z" fill="#EC4040"/>
<path d="M357 24C338.9 26.2 323.2 31.1 307.1 39.6C292.9 47.1 283.5 54.3 270.4 67.7C255.6 82.9 256.6 82.9 240.6 66.7C227.7 53.7 216.3 45.1 202.5 38.3C193.5 33.8 180 28.7 179.2 29.5C178.9 29.8 179.2 30 179.9 30C180.6 30 177 33.9 171.9 38.7C156.2 53.7 144.9 69.6 134.4 91.5C122.3 116.9 115.7 142.1 114.2 169.7L113.5 181.9L116.6 182.5C120.9 183.3 127.3 188.1 129.2 191.9C130 193.7 135.8 214.5 142.1 238.1C148.4 261.7 153.7 281 154 281C154.3 281 157.6 272.7 161.3 262.6C168 244.7 169.7 241.7 174.7 239.1C176.1 238.4 184 238 196.9 238H216.9L217.9 234.2C234.1 175.1 237.9 161.8 239.3 159.7C240.2 158.3 242.6 155.9 244.7 154.3C247.8 151.9 249.2 151.5 255 151.5C263.3 151.5 268.7 154.6 271.8 161.2C273 163.7 277.8 185.5 283.5 214.7C288.9 241.8 293.6 264 293.9 264C294.3 264 295.7 258.5 297 251.7C299.8 236.8 301 233.8 305.2 230.8C308.3 228.6 309.5 228.5 329.9 228L351.2 227.5L358.9 208.5C367.9 186 368.2 185.4 372.3 183C377.6 179.7 384.7 180.6 388.9 185.1C390 186.3 396.4 196.4 403.1 207.6L415.3 228H436.2C458.9 228 461.9 228.6 465.8 233.5C470.8 239.8 469 248.9 462.1 253.3C458.6 255.4 457.7 255.5 431.5 255.5C398.1 255.5 400.7 256.5 390.1 238.8C385.9 231.8 382.3 226.1 381.9 226C381.6 226 379.2 231.5 376.4 238.2C369.4 255.6 368.7 255.9 341.4 256C324.4 256 324.2 256 323.7 258.2C323.4 259.5 320.8 272.2 318 286.5C315 301.5 311.9 314.7 310.5 317.7C307.8 323.7 302.3 327.9 296.1 328.7C287.9 329.8 278.7 323.8 276.2 315.8C275.6 314 270.5 289.3 264.9 261C259.3 232.7 254.5 209.3 254.3 209.1C253.6 208.2 252.8 210.5 247.1 231.6C243.8 243.7 240.7 254.7 240.1 256C236.8 264 233.5 265 209.3 265H189.5L181.1 287.8C171.4 314 168.2 320.9 164.3 324C160.6 326.9 155.4 329 151.9 329C150.3 329 149 329.2 149 329.5C149 329.8 151.7 335.4 155 341.9C178.6 389.1 212.3 436 253.7 479.1L261 486.7L275.2 478.8C332 447 386.7 403.4 427.6 357.5C482.9 295.5 511.9 230.2 512 167.8C512 126.4 497.8 91.6 469.1 63C453.3 47.3 437.8 37.4 418 30.7C400.6 24.8 374.4 21.9 357 24Z" fill="#2CCAB9"/>
<path d="M121.3 24.7C122.2 24.9 123.8 24.9 124.8 24.7C125.7 24.4 124.9 24.2 123 24.2C121.1 24.2 120.3 24.4 121.3 24.7Z" fill="#EC4040"/>
<path d="M153.3 24.7C154.2 24.9 155.8 24.9 156.8 24.7C157.7 24.4 156.9 24.2 155 24.2C153.1 24.2 152.3 24.4 153.3 24.7Z" fill="#EC4040"/>
<path d="M86.9998 33.5C85.5998 34.3 84.9998 34.9 85.4998 34.9C86.0998 34.9 87.5998 34.3 88.9998 33.5C90.3998 32.7 91.0998 32.1 90.4998 32.1C89.9998 32.1 88.3998 32.7 86.9998 33.5Z" fill="#EC4040"/>
<path d="M54.8998 53.4C51.3998 56.3 45.5998 61.9 41.9998 65.6C36.7998 71.1 37.3998 70.6 44.9998 63.4C50.1998 58.5 56.2998 53 58.4998 51.2C60.6998 49.5 62.2998 48.1 61.8998 48C61.5998 48 58.4998 50.4 54.8998 53.4Z" fill="#EC4040"/>
<path d="M33.3999 75.2C30.3999 78.6 28.6999 81 29.1999 81C29.4999 81 31.0999 79.2 32.8999 77C36.2999 72.7 36.6999 71.5 33.3999 75.2Z" fill="#EC4040"/>
<path d="M24.1997 87.7C23.1997 89.3 21.7997 91.5 21.0997 92.7C18.9997 96.8 20.5997 95.1 23.7997 90C27.0997 84.6 27.3997 83.2 24.1997 87.7Z" fill="#EC4040"/>
<path d="M15.4001 103.1C13.5 107 12 110.4 12.2 110.6C12.4 110.8 14.3001 107.6 16.3001 103.5C18.3001 99.4 19.8 96 19.5 96C19.2 96 17.4001 99.2 15.4001 103.1Z" fill="#EC4040"/>
<path d="M5.59971 127.6C5.19971 129 5.09971 130.4 5.29971 130.7C5.59971 130.9 6.09971 129.9 6.39971 128.4C6.79971 127 6.89971 125.6 6.69971 125.3C6.39971 125.1 5.89971 126.1 5.59971 127.6Z" fill="#EC4040"/>
<path d="M0.299939 156.5C0.299939 158.7 0.499939 159.5 0.699939 158.2C0.899939 157 0.899939 155.2 0.699939 154.2C0.399939 153.3 0.199939 154.3 0.299939 156.5Z" fill="#EC4040"/>
<path d="M0.299805 182C0.299805 184.5 0.499805 185.5 0.699805 184.2C0.899805 183 0.899805 181 0.699805 179.7C0.499805 178.5 0.299805 179.5 0.299805 182Z" fill="#EC4040"/>
<path d="M109.5 229.1C109.1 229.6 109.1 230.4 109.4 230.7C109.7 231.1 110 230.7 110.1 229.9C110.1 229.1 110.5 229.3 111 230.5C111.7 232.1 111.9 232.2 111.9 230.8C112 228.7 110.4 227.6 109.5 229.1Z" fill="#EC4040"/>
<path d="M76.5 234.9C75.9 236.9 75.1 237 50.2 237.3L24.5 237.5L50.2 237.8C75.4 238 76 238 77 235.9C77.7 234.8 77.9 233.6 77.7 233.3C77.4 233.1 76.9 233.8 76.5 234.9Z" fill="#EC4040"/>
<path d="M114.1 242C114.1 242.8 114.5 244.4 115 245.5C115.5 246.8 115.9 246.9 115.9 246C115.9 245.2 115.5 243.6 115 242.5C114.5 241.2 114.1 241.1 114.1 242Z" fill="#EC4040"/>
<path d="M97.5001 256.8C96.4001 258.8 94.0001 261.5 92.1001 262.7C90.2001 264 89.2001 265 89.8001 265C91.5001 265 97.0001 260 98.6001 256.8C100.8 252.5 99.8001 252.5 97.5001 256.8Z" fill="#EC4040"/>
<path d="M118.1 257C118.1 257.8 118.5 259.4 119 260.5C119.5 261.8 119.9 261.9 119.9 261C119.9 260.2 119.5 258.6 119 257.5C118.5 256.2 118.1 256.1 118.1 257Z" fill="#EC4040"/>
<path d="M32.7999 267.2C31.4999 268.5 31.2999 268.8 32.2999 268C33.7999 266.8 39.2999 266.4 60.8999 266L87.4999 265.4L61.2999 265.2C35.3999 265 35.0999 265 32.7999 267.2Z" fill="#EC4040"/>
<path d="M122.1 272C122.1 272.8 122.5 274.4 123 275.5C123.5 276.8 123.9 276.9 123.9 276C123.9 275.2 123.5 273.6 123 272.5C122.5 271.2 122.1 271.1 122.1 272Z" fill="#EC4040"/>
<path d="M33.5001 287C34.4001 288.6 35.3001 290 35.6001 290C35.8001 290 35.4001 288.6 34.5001 287C33.6001 285.3 32.7001 284 32.4001 284C32.2001 284 32.6001 285.3 33.5001 287Z" fill="#EC4040"/>
<path d="M126.1 287C126.1 287.8 126.5 289.4 127 290.5C127.5 291.8 127.9 291.9 127.9 291C127.9 290.2 127.5 288.6 127 287.5C126.5 286.2 126.1 286.1 126.1 287Z" fill="#EC4040"/>
<path d="M38.9999 296.7C40.0999 298.8 41.9999 301.6 43.1999 303L45.1999 305.5L43.4999 302.6C42.4999 301 40.8999 298.2 39.7999 296.3C37.0999 291.7 36.3999 292.1 38.9999 296.7Z" fill="#EC4040"/>
<path d="M130.1 302C130.1 302.8 130.5 304.4 131 305.5C131.5 306.8 131.9 306.9 131.9 306C131.9 305.2 131.5 303.6 131 302.5C130.5 301.2 130.1 301.1 130.1 302Z" fill="#EC4040"/>
<path d="M54.9999 321C56.1999 322.6 57.3999 324 57.5999 324C57.8999 324 57.1999 322.6 55.9999 321C54.7999 319.3 53.5999 318 53.3999 318C53.0999 318 53.7999 319.3 54.9999 321Z" fill="#EC4040"/>
<path d="M62.7997 331.7C63.8997 333.3 66.4997 336.3 68.4997 338.5C70.4997 340.7 69.7997 339.5 66.8997 335.7C61.6997 329.1 58.9997 326.4 62.7997 331.7Z" fill="#EC4040"/>
<path d="M73.0999 344.5C77.9999 350.9 98.4999 373.1 108.7 383C119.3 393.3 119 393 105.9 379.5C97.8999 371.2 87.5999 360.2 82.9999 355C74.3999 345.1 70.0999 340.6 73.0999 344.5Z" fill="#EC4040"/>
<path d="M121.3 394.6C122.2 396.1 138 410.4 138 409.7C138 409.5 134.1 405.7 129.3 401.4C124.5 397 120.9 394 121.3 394.6Z" fill="#EC4040"/>
<path d="M145.8 416.1C147.2 418 159 427.3 159 426.7C159 426.4 155.7 423.6 151.8 420.4C147.8 417.2 145.1 415.3 145.8 416.1Z" fill="#EC4040"/>
<path d="M160 427.3C160 427.6 161.8 429.3 164 431C166.2 432.7 168 433.9 168 433.7C168 433.4 166.2 431.7 164 430C161.8 428.3 160 427.1 160 427.3Z" fill="#EC4040"/>
<path d="M169 434.4C169 434.6 170.4 435.8 172 437C173.7 438.2 175 438.9 175 438.6C175 438.4 173.7 437.2 172 436C170.4 434.8 169 434.1 169 434.4Z" fill="#EC4040"/>
<path d="M180 442.4C180 442.6 181.4 443.8 183 445C184.7 446.2 186 446.9 186 446.6C186 446.4 184.7 445.2 183 444C181.4 442.8 180 442.1 180 442.4Z" fill="#EC4040"/>
<path d="M192.2 451.2C195.2 453.8 201 457.4 201 456.7C201 456.5 198.4 454.6 195.3 452.6C192.1 450.6 190.7 449.9 192.2 451.2Z" fill="#EC4040"/>
<path d="M206.9 460.8C208.3 461.9 210.7 463.5 212.4 464.5L215.5 466.2L213.1 464.2C211.7 463.1 209.3 461.5 207.6 460.5L204.5 458.8L206.9 460.8Z" fill="#EC4040"/>
<path d="M235 477.5C235 477.7 236.8 478.9 239 480C241.2 481.1 243 481.8 243 481.5C243 481.3 241.2 480.1 239 479C236.8 477.9 235 477.2 235 477.5Z" fill="#EC4040"/>
<path d="M246 483.5C246 484.2 256.1 489.2 256.6 488.8C256.8 488.6 254.5 487.2 251.5 485.7C248.5 484.2 246 483.2 246 483.5Z" fill="#EC4040"/>
</svg>
