<svg width="512" height="563" viewBox="0 0 512 563" fill="none" xmlns="http://www.w3.org/2000/svg">
<g clip-path="url(#clip0_4_159)">
<path d="M489.6 312.9C488.7 319 480.5 343.4 475.1 356.8C449.6 418.8 406.8 472.4 352.4 510.6C322.4 531.6 286 549.2 251.5 559.4L239.5 562.9L282 563C356.9 563 399.9 559.6 433.8 550.9C476.8 539.8 500.7 518.1 509.2 482.2C510.9 475.1 511.3 469 511.7 449.1C512.4 415.3 509.7 385.1 503.4 354.5C499.8 337.2 494 316.3 491.4 311.2C490.3 309.1 490.2 309.1 489.6 312.9Z" fill="#129F90"/>
<path d="M462 251.1C462 257 458 281.9 455.1 295C446.1 334.1 428.2 373.7 405 406C381.8 438.2 348.9 468.9 315.5 489.5C227.1 544 118.5 550.8 23.2002 507.6C14.9002 503.8 11.4002 502.7 11.2002 503.6C11.0002 504.3 13.1002 508.2 15.8002 512.2C30.3002 533.4 53.0002 546 91.5002 553.9C103.7 556.5 128.8 559.7 143 560.5C148.8 560.9 155.1 561.3 157 561.6C158.9 561.8 177.8 562.3 199 562.6L237.5 563.3L249 560.1C283.8 550.2 321.8 532 352.4 510.6C392.6 482.3 427.9 444.1 452.9 401.6C467.9 376.1 481.5 343.8 488.5 317.4L490.9 308.2L487.1 298.4C480.6 281.2 471.2 261.7 466.9 256.1C465.8 254.8 465 253.2 465 252.6C465 252 464.3 250.6 463.5 249.6C462.1 247.7 462 247.8 462 251.1Z" fill="#13AF9E"/>
<path d="M268 498.7C267.7 503.2 267.9 506.5 268.3 506.1C268.7 505.7 269 502 268.8 497.9L268.5 490.5L268 498.7Z" fill="#EC4015"/>
<path d="M189.4 0.699997C185.4 1.5 179.1 7.8 177.9 12.3C174 26.6 183.9 57.5 202.8 90.7L207.5 99H256H304.5L310.2 88.7C326 60.4 335 35.1 335 19.8C334.9 13 332.2 7 327.4 3.4C324.2 0.900002 322.6 0.5 316.1 0.199997C309.5 -0.0999985 307 0.299995 297.5 3.4C278.3 9.7 268.7 11.3 252 10.7C237 10.1 230 8.7 212.1 2.6C205 0.0999985 196 -0.599998 189.4 0.699997Z" fill="#2CCAB9"/>
<path d="M157.3 26.9C142.9 31.8 135 43.1 135 58.8C135 69.6 139.9 82.8 146.8 90.6C149.4 93.6 149.8 93.7 160.5 94.3C166.6 94.6 175.7 95.8 180.7 97C185.8 98.2 191.2 99 192.8 98.8L195.8 98.5L190.6 89C179.4 68.3 171 46.8 168 30.7C166.7 24.1 166 23.9 157.3 26.9Z" fill="#2CCAB9"/>
<path d="M344.5 27.7C341.3 43.7 337.3 56.2 330.6 70.5C327.8 76.5 323.4 85.3 320.9 90L316.2 98.5L336.3 99L356.5 99.6L359.4 97C363.8 93.1 371.7 81.3 374.1 75.1C375.2 72 376.4 66 376.7 61.8C378 44.2 369.4 31.4 353 26.4C346.4 24.4 345.1 24.6 344.5 27.7Z" fill="#2CCAB9"/>
<path d="M217.2 109.7C216.5 110 218.2 111.6 221.4 113.5C230 118.6 237.8 125.1 246.9 134.4L255.3 143.1L305.5 142.8L355.7 142.5L359.3 139.7C364.1 136.1 366 132.2 366 126.5C366 120.2 363.5 115.4 358.7 112.2L354.6 109.5L286.6 109.3C249.1 109.2 217.9 109.4 217.2 109.7Z" fill="#2CCAB9"/>
<path d="M356.5 152C355.4 152.5 347.6 152.9 339.2 152.9L323.9 153L326.7 158.2C331.1 166.5 344 178.7 354.2 184.3C358.9 186.9 364 190.4 365.6 192.2C380.6 210 368.2 237.1 345.1 237C330.1 236.9 298.3 213.3 284.5 192C279.7 184.6 279.6 184.5 278.9 187.4C278.4 189 278.5 191.1 279 192C282.9 199.3 284.4 231.4 281.5 247.5C279.3 259.7 272.9 279 271.9 276.4C271.4 275.2 271.1 277 271.1 281L271 287.6L277.3 288.9C287.2 290.9 297.6 296.5 305 304C314.9 314 319.8 324.8 321.6 340.7L322.3 347H300.8H279.3L278.6 341.7C276.9 326.8 270 319 258.6 319C250.5 319 245.2 322.3 241.9 329.5C239.5 334.8 239.5 344.2 241.9 349.6C244.1 354.4 250.5 360.2 257.5 363.5C260.2 364.8 268.6 368.7 276.1 372.3C291.6 379.6 299.2 384.5 306.8 392C324.9 410.1 325.6 442.1 308.3 461.9C300.9 470.4 286.7 477.4 272.6 479.5L267.9 480.2L268.6 492.5C268.9 499.3 269 505.2 268.7 505.6C268.4 506.1 263.9 506.4 258.6 506.2L249 505.9V493.1V480.3L242.8 479.1C221.8 475.1 207.2 465.9 198.2 451C194.9 445.5 191.2 433.2 190.4 425.2L189.7 418H211.4H233V421.2C233 426.3 235.6 434.8 238.4 439C242 444.4 249.6 448 257.7 448C265.3 448 269.7 446.4 273.2 442.2C277 437.7 278.3 432.7 277.7 425.4C276.8 413.1 271.4 407.6 252.7 399.5C216 383.6 204.9 374.4 198.9 354.6C197.9 351.3 197.3 348.2 197.7 347.7C198 347.2 197.2 347.5 195.9 348.3C192.7 350.3 179 353.7 168.2 355.1C157.5 356.5 137.3 355.8 126.8 353.6C109.8 350 93.9001 343.4 79.6002 333.9C63.6001 323.3 45.6002 303.4 36.9002 286.6C35.0001 283 33.2001 280 32.9002 280C31.0002 280 18.8001 313.4 14.0001 331.5C4.70015 366.6 1.00015 394.3 0.300148 435.5C-0.199852 462.7 -0.0998516 465.2 2.00015 476.5C3.30015 483.1 5.20015 490.5 6.30015 493C8.60015 498.1 8.40015 497.5 9.50015 501.3C9.90015 502.9 10.5001 503.8 10.9001 503.2C11.2001 502.7 16.6001 504.6 23.2001 507.6C118.5 550.8 227.1 544 315.5 489.5C348.9 468.9 381.8 438.2 405 406C428.2 373.7 446.1 334.1 455.1 295C458.1 281.7 462 256.8 462 251C461.9 247.2 457.9 240.2 447.3 225.6C438.9 214.1 437.6 212.6 421 195.9C406.3 181.2 392.4 169.8 377 159.8C363.2 150.8 361.1 150 356.5 152Z" fill="#2CCAB9"/>
<path d="M264.4 153.8C263.6 154.3 264.8 157.3 268 163.3L272.7 172.1L276 166.6L279.4 161.1L285.1 172.8C294.3 191.6 306.4 205.7 322.6 216.6C334.7 224.7 341.1 227.3 347.2 226.8C357.3 225.8 363.8 217 361.9 206.6C360.9 200.8 358.2 198 348.4 192.4C333.8 183.9 322.9 172.7 315.9 158.7L313 153H289.2C276.2 153 265 153.4 264.4 153.8Z" fill="#2CCAB9"/>
<path d="M152.5 96.7L155.5 99.6L171.5 99L187.5 98.5L179.5 96.7C175.1 95.7 166.6 94.6 160.5 94.3L149.5 93.8L152.5 96.7Z" fill="#22AD9E"/>
<path d="M157.8 110C150.3 112.2 146 118.4 146 126.8C146 132.2 148.4 136.8 153.3 140.4C156.1 142.5 157.2 142.5 205.1 142.8C232.5 142.9 254 142.7 254 142.2C254 141.7 249.4 136.8 243.8 131.4C234.3 122.2 219.4 111 216.7 111C216 111 216.1 110.6 217 110C218.9 108.8 161.8 108.8 157.8 110Z" fill="#22AD9E"/>
<path d="M140 156.8C130.5 162.6 121.2 169 115.4 173.9C113.7 175.3 110.6 177.8 108.4 179.4C99.6002 186 74.1002 212.9 64.9002 225.2C54.8002 238.7 44.1002 256.1 37.0002 270.2L32.7002 278.8L37.0002 286.7C49.9002 310.7 71.4002 331.4 95.6002 343C114.8 352.2 129.6 355.5 152.5 355.5C169.9 355.5 179 354.2 191.6 350.1C194.5 349.1 197.1 348.7 197.2 349.2C197.4 349.7 197.4 346.8 197.2 342.8C196.4 327 201.6 313.4 212.3 303.4C221.2 295 231.8 290.2 247.3 287.6L251 286.9V273.5V260H261H271L271.1 267.2C271.2 279.6 272.2 279.6 276.3 267.4C281.3 252.3 283.1 241.1 283.1 225C283.1 205.8 278.6 181.3 278.2 198.2C277.9 208.1 275.5 214.3 269.8 220.1C256.7 233.2 235.6 229.5 226.8 212.7C224.1 207.4 223.2 193.7 225 181.9C225.9 175.1 229.5 162.3 232.5 154.8C233.1 153.2 230.5 153 193.8 152.7C172.2 152.5 153.4 152 152 151.6C150 151.1 147.6 152.1 140 156.8ZM170.3 170.1C187.4 175.8 201.2 189.5 207.1 206.7C210.5 216.4 210.5 233.5 207.2 243.2C202.5 256.6 192 269.1 180.1 275.4C170 280.6 162.9 282.4 152 282.3C121.6 282.2 97.2002 259.2 95.3002 228.8C94.3002 213.8 98.7002 199.7 108 188.2C115.7 178.6 129.9 170.3 142.3 168C149.7 166.7 163.1 167.7 170.3 170.1Z" fill="#2CCAB9"/>
<path d="M241.6 159.1C237.1 169.5 234.9 179.6 234.3 192.5C233.9 203.7 234 204.8 236.2 209C242.4 220.9 259.4 221 265.7 209.1C267.5 205.7 268 203.1 268 197.4C268 190 270.5 175.2 272.1 173.6C272.6 173 271 168.9 268 163.4C264.7 157.2 263.5 154 264.3 153.6C265 153.4 260.7 153.1 254.9 153.1L244.3 153L241.6 159.1Z" fill="#22AD9E"/>
<path d="M142.3 168C129.9 170.3 115.7 178.6 108 188.2C98.6999 199.7 94.2999 213.8 95.2999 228.8C97.1999 259.2 121.6 282.2 152 282.3C162.9 282.4 170 280.6 180.1 275.4C192 269.1 202.5 256.6 207.2 243.2C210.5 233.5 210.5 216.4 207.1 206.7C202.6 193.6 192.7 181.6 180.5 174.5C170.6 168.7 154 165.9 142.3 168ZM166.5 173.5C190.4 179.8 208.1 205.1 205.6 229.6C204.3 242.7 199.3 252.9 189.6 262.6C178.8 273.3 167.6 278 152.5 278C137.9 278 126.7 273.5 115.9 263.2C103.2 251.2 97.1999 234.3 99.7999 217.2C102.9 196.9 118.8 178.8 138 173.6C145.3 171.7 159.1 171.6 166.5 173.5Z" fill="#2CCAB9"/>
<path d="M138 173.6C118.8 178.8 102.9 196.9 99.7999 217.2C97.1999 234.3 103.2 251.2 115.9 263.2C126.7 273.5 137.9 278 152.5 278C167.6 278 178.8 273.3 189.6 262.6C199.3 252.9 204.3 242.7 205.6 229.6C208.1 205.1 190.4 179.8 166.5 173.5C159.1 171.6 145.3 171.7 138 173.6Z" fill="#2CCAB9"/>
</g>
<defs>
<clipPath id="clip0_4_159">
<rect width="512" height="563" fill="white"/>
</clipPath>
</defs>
</svg>
