<svg width="512" height="512" viewBox="0 0 512 512" fill="none" xmlns="http://www.w3.org/2000/svg">
<g clip-path="url(#clip0_6_118)">
<path d="M431 0.700023C378.9 4.60002 323.8 19.6 284 40.7C221.9 73.7 161.8 133.9 126.2 199L122.1 206.6L213.8 298.3L305.6 390L317.9 383C360.2 358.7 398.5 326.4 431.1 287.3C474.8 235 498.8 178.2 509.1 102.5C510.7 91.2 511.3 79.7 511.7 55.9C512.4 18.3 512 15.9 504.1 8.00002C496.6 0.500023 493.8 2.32458e-05 462.1 0.200023C447.5 0.300023 433.5 0.500023 431 0.700023ZM366.3 88.6C370.3 89.4 378 92.3 383.5 95C403.8 104.8 417.7 122.2 423.1 144.7C426.9 160.5 424.7 179.6 417.3 194.5C413.9 201.3 405.1 212.7 399.8 217.1C376.4 236.5 346.8 241 320.4 229C290.5 215.4 272.2 182.9 277 151.4C281.8 119.8 304.4 95.4 335.5 88.5C343.8 86.7 357.7 86.7 366.3 88.6Z" fill="#2CCAB9"/>
<path d="M338 117.6C316.6 123.3 302.3 145.9 305.9 168.2C309.9 193.2 333.6 210.4 357.9 206.1C389.1 200.5 405.2 167.9 390.8 139.6C388.1 134.3 379.6 125.4 374.2 122.3C364 116.3 349.8 114.4 338 117.6Z" fill="#22AD9E"/>
<path d="M100.5 140C84.6998 141.4 78.0998 142.3 73.7998 144C63.2998 147.9 59.8998 152.1 30.1998 197C15.0998 219.8 2.09982 239.9 1.39982 241.7C-0.500181 246.1 -0.400181 256.6 1.59982 262.3C3.49982 268 9.69982 274.5 15.4998 277.1C20.0998 279.2 63.0998 286.3 64.0998 285.2C64.3998 284.8 65.4998 280.7 66.3998 276C74.6998 236.3 95.1998 190.3 122.7 150.2L131 138L126.3 138.1C123.6 138.2 112.1 139 100.5 140Z" fill="#129F90"/>
<path d="M106 243.2C98.6996 262.4 91.9996 289.9 91.9996 300.8C91.9996 312.7 91.5996 312.1 146.7 367.1C203.3 423.5 199.7 420.7 214.8 419.7C219.6 419.4 230 417.5 238 415.5C251.6 412 272.7 405.1 276 403C277.2 402.2 260.1 384.6 194 318.5C148.1 272.6 110.2 235 109.8 235C109.5 235 107.8 238.7 106 243.2Z" fill="#129F90"/>
<path d="M60.5998 343.1C57.2998 343.6 53.4998 347 29.7998 370.6C14.9998 385.4 2.19981 398.7 1.39981 400.2C-2.00019 406.7 0.699805 416 7.19981 420C11.0998 422.4 18.8998 422.7 22.7998 420.6C24.2998 419.8 37.0998 407.5 51.1998 393.3C81.3998 363.1 82.4998 361.2 78.0998 351.3C75.0998 344.7 68.5998 341.7 60.5998 343.1Z" fill="#22AD9E"/>
<path d="M362 389.2C338.5 405.4 308.8 421.2 283.7 431C269.8 436.5 245 444 234 446C230.4 446.7 227.2 447.5 226.8 447.9C226.4 448.2 227.7 458.4 229.6 470.5C233.5 495.1 235.4 500.8 242 506C244.1 507.7 247.7 509.7 250 510.5C255.3 512.4 266 512.4 270.3 510.6C272.1 509.9 292.3 496.9 315.1 481.8C360 452.1 364.1 448.7 368 438.2C369.7 433.8 370.6 427 372.1 409C373.2 396.1 373.9 384.6 373.8 383.4C373.5 381.5 372.2 382.1 362 389.2Z" fill="#129F90"/>
<path d="M104 388.1C101.3 388.9 89.5 400.1 53.1 436.3C27.1 462.3 4.5 485.3 2.9 487.4C0.5 490.6 0 492.3 0 496.9C0 506.6 5.4 512 15.1 512C19.7 512 21.4 511.5 24.6 509.1C26.7 507.5 49.7 484.9 75.7 458.9C117.2 417.1 123 411 124 407.2C125.2 402.6 124.2 397.2 121.5 393.2C118.3 388.7 110.2 386.3 104 388.1Z" fill="#2CCAB9"/>
<path d="M148 433.6C144.1 435.2 93.7999 484.7 91.3999 489.2C89.2999 493.1 89.5999 500.9 91.9999 504.8C95.9999 511.3 105.3 514 111.8 510.6C113.3 509.8 126.6 497 141.4 482.2C165 458.5 168.3 454.8 168.9 451.4C170.3 443.4 167.3 436.9 160.7 433.9C155.7 431.7 152.7 431.6 148 433.6Z" fill="#22AD9E"/>
</g>
<defs>
<clipPath id="clip0_6_118">
<rect width="512" height="512" fill="white"/>
</clipPath>
</defs>
</svg>
