<svg width="550" height="519" viewBox="0 0 550 519" fill="none" xmlns="http://www.w3.org/2000/svg">
<path d="M50.0906 422.229C29.9636 427.015 16.832 447.756 21.0047 468.128C23.5819 480.278 -2.55854 479.174 270.137 479.542C439.498 479.787 511.169 479.542 516.815 478.56C536.205 475.246 549.459 459.415 549.091 439.902C549.091 435.852 548.232 430.574 547.128 428.12C545.532 424.07 544.55 423.456 538.905 422.229C531.173 420.511 57.2086 420.511 50.0906 422.229ZM85.6809 433.397C91.9399 439.288 87.5218 450.333 78.8083 450.333C73.0402 450.333 68.8675 446.406 68.8675 440.638C68.8675 431.802 79.1765 427.261 85.6809 433.397ZM164.225 433.397C170.484 439.288 166.066 450.333 157.352 450.333C151.584 450.333 147.412 446.406 147.412 440.638C147.412 431.802 157.721 427.261 164.225 433.397ZM242.769 433.397C249.028 439.288 244.61 450.333 235.897 450.333C230.128 450.333 225.956 446.406 225.956 440.638C225.956 431.802 236.265 427.261 242.769 433.397ZM321.313 433.397C327.572 439.288 323.154 450.333 314.441 450.333C308.673 450.333 304.5 446.406 304.5 440.638C304.5 431.802 314.809 427.261 321.313 433.397ZM399.857 433.397C406.116 439.288 401.698 450.333 392.985 450.333C387.217 450.333 383.044 446.406 383.044 440.638C383.044 431.802 393.353 427.261 399.857 433.397ZM478.402 433.397C484.661 439.288 480.242 450.333 471.529 450.333C465.761 450.333 461.588 446.406 461.588 440.638C461.588 431.802 471.897 427.261 478.402 433.397Z" fill="#22AD9E"/>
<path d="M39.4136 489.605V499.423H275.046H510.678V489.605V479.787H275.046H39.4136V489.605Z" fill="#13AF9E"/>
<path d="M32.2956 402.593C9.10054 407.134 -4.52196 430.82 3.08701 453.647C5.41878 460.642 12.6596 469.601 18.9186 473.406L22.9685 475.737L21.3731 469.478C19.2867 461.869 20.1458 452.051 23.5821 444.32C26.8957 436.834 35.8546 427.752 43.5863 424.316L49.8453 421.493L291.614 421.125C491.779 420.879 534.487 421.125 539.764 422.475L546.146 424.193L544.06 420.511C540.746 414.866 530.928 406.643 524.424 404.066C518.901 401.98 508.592 401.857 278.114 401.734C145.816 401.611 35.241 401.98 32.2956 402.593Z" fill="#2CCAB9"/>
<path d="M270.382 0.790878C267.437 1.8954 226.815 64.1171 226.815 67.4307C226.815 69.3943 233.933 81.1759 245.96 99.3392L265.228 128.18V160.334V192.488L269.891 199.238C272.346 202.919 274.801 205.987 275.169 206.11C275.537 206.11 277.991 203.042 280.446 199.238L284.864 192.365V160.211V128.18L303.886 99.7074C318 78.5987 322.909 70.1306 322.909 67.4307C322.909 64.608 317.632 55.7718 302.168 32.5767C290.755 15.5179 280.446 1.15905 279.341 0.668153C277.01 -0.190924 272.714 -0.190924 270.382 0.790878ZM288.914 46.5674C296.155 57.3672 302.046 66.6943 302.046 67.4307C302.046 69.0261 276.15 107.93 275.046 107.93C273.941 107.93 248.046 69.0261 248.046 67.4307C248.046 65.8352 273.941 26.9313 275.046 26.9313C275.537 26.9313 281.796 35.7676 288.914 46.5674Z" fill="#2CCAB9"/>
<path d="M464.656 169.293C453.856 172.115 444.407 176.288 444.407 178.252C444.407 179.111 445.266 182.424 446.247 185.861C451.77 203.901 453.488 239.246 450.052 265.018C444.038 309.936 425.507 359.026 401.207 394.739C399.366 397.562 397.771 400.139 397.771 400.507C397.771 400.875 422.316 401.243 452.384 401.243H506.874L512.151 392.284C514.974 387.498 520.251 376.821 523.933 368.721C556.946 294.963 557.682 219.733 525.773 185.247C517.919 176.656 511.292 172.483 500.737 169.17C491.165 166.224 476.07 166.224 464.656 169.293Z" fill="#2CCAB9"/>
<path d="M261.178 47.7947L248.046 67.4307L261.178 87.0667C268.296 97.8665 274.555 106.703 275.046 106.703C275.537 106.703 281.796 97.8665 288.914 87.0667L302.045 67.4307L288.914 47.7947C281.796 36.9948 275.537 28.1586 275.046 28.1586C274.555 28.1586 268.296 36.9948 261.178 47.7947Z" fill="white"/>
<path d="M40.1499 502.737C41.9908 510.223 47.8816 516.237 54.877 517.955C61.2587 519.428 488.956 519.305 495.215 517.832C501.351 516.482 508.101 509.855 509.451 503.964L510.433 499.423H274.923H39.4136L40.1499 502.737Z" fill="#2CCAB9"/>
<path d="M375.067 127.198C357.027 129.898 339.109 138.611 322.296 152.725C313.459 160.211 299.469 174.815 292.841 183.406C289.773 187.456 286.214 191.874 284.987 193.224C283.76 194.574 281.305 198.01 279.342 200.956C276.887 204.637 275.292 205.987 273.942 205.497C272.346 204.883 272.224 205.006 273.574 206.233C274.678 207.46 275.046 228.814 275.046 304.536V401.243L336.041 400.998L397.035 400.63L403.54 390.812C426.735 355.835 444.162 308.708 449.93 264.65C452.016 248.328 452.384 219.61 450.543 206.724C449.071 196.66 444.53 177.515 443.303 176.656C442.812 176.288 441.216 172.974 439.621 169.293C431.276 149.779 417.53 135.789 400.962 130.021C393.967 127.689 381.204 126.216 375.067 127.198ZM416.18 199.974C419.617 201.815 420.844 207.215 421.826 223.66C423.421 253.359 416.794 293.981 406.485 318.158C402.558 327.363 392.74 328.345 388.076 320.122C386.358 317.054 386.604 315.827 390.776 302.94C399.49 275.941 403.54 245.628 401.576 220.224C400.594 207.46 401.331 202.919 404.767 200.219C407.221 198.501 412.989 198.256 416.18 199.974Z" fill="#22AD9E"/>
<path d="M54.1408 167.206C39.1683 170.765 28.0003 178.252 19.0414 190.892C-9.43085 230.778 -4.15367 308.095 31.9275 379.766L42.4819 400.63L97.9537 400.998L153.426 401.243L146.062 389.953C122.621 353.871 104.335 302.204 99.6719 258.637C96.8492 233.478 98.6901 205.128 104.335 184.756L106.667 176.411L101.267 174.202C84.5767 166.961 66.4133 164.384 54.1408 167.206Z" fill="#22AD9E"/>
<path d="M524.178 183.406C526.51 185.738 528.596 187.701 528.965 187.701C529.333 187.701 527.737 185.738 525.406 183.406C523.074 181.074 520.987 179.111 520.619 179.111C520.251 179.111 521.846 181.074 524.178 183.406Z" fill="white"/>
<path d="M72.4267 434.256C70.4631 436.22 68.8677 439.043 68.8677 440.515C68.8677 443.952 75.2494 450.333 78.6857 450.333C82.122 450.333 88.5037 443.952 88.5037 440.515C88.5037 437.079 82.122 430.697 78.6857 430.697C77.213 430.697 74.3903 432.293 72.4267 434.256Z" fill="white"/>
<path d="M150.971 434.256C149.007 436.22 147.412 439.043 147.412 440.515C147.412 443.952 153.793 450.333 157.23 450.333C160.666 450.333 167.048 443.952 167.048 440.515C167.048 437.079 160.666 430.697 157.23 430.697C155.757 430.697 152.934 432.293 150.971 434.256Z" fill="white"/>
<path d="M229.515 434.256C227.551 436.22 225.956 439.043 225.956 440.515C225.956 443.952 232.338 450.333 235.774 450.333C239.21 450.333 245.592 443.952 245.592 440.515C245.592 437.079 239.21 430.697 235.774 430.697C234.301 430.697 231.479 432.293 229.515 434.256Z" fill="white"/>
<path d="M308.059 434.256C306.095 436.22 304.5 439.043 304.5 440.515C304.5 443.952 310.882 450.333 314.318 450.333C317.754 450.333 324.136 443.952 324.136 440.515C324.136 437.079 317.754 430.697 314.318 430.697C312.845 430.697 310.023 432.293 308.059 434.256Z" fill="white"/>
<path d="M386.603 434.256C384.639 436.22 383.044 439.043 383.044 440.515C383.044 443.952 389.426 450.333 392.862 450.333C396.298 450.333 402.68 443.952 402.68 440.515C402.68 437.079 396.298 430.697 392.862 430.697C391.389 430.697 388.567 432.293 386.603 434.256Z" fill="white"/>
<path d="M465.147 434.256C463.184 436.22 461.588 439.043 461.588 440.515C461.588 443.952 467.97 450.333 471.406 450.333C474.843 450.333 481.224 443.952 481.224 440.515C481.224 437.079 474.843 430.697 471.406 430.697C469.934 430.697 467.111 432.293 465.147 434.256Z" fill="white"/>
<path d="M160.298 127.075C145.325 129.407 130.721 138.243 121.394 150.761C116.117 157.756 113.785 161.806 107.158 176.779C100.162 192.12 96.6033 229.183 99.426 256.55C104.09 301.468 122.13 353.012 146.062 389.83L153.425 401.243H214.297H275.046V304.904V208.442L270.628 201.569C252.219 172.729 222.274 144.502 199.079 134.193C187.175 128.793 169.87 125.725 160.298 127.075Z" fill="#2CCAB9"/>
<path d="M306.341 167.084L301.432 172.361L306.709 167.452C311.495 163.034 312.477 161.929 311.495 161.929C311.25 161.929 308.918 164.261 306.341 167.084Z" fill="#2CCAB9"/>
<path d="M404.767 200.219C401.33 202.919 400.594 207.46 401.576 220.224C403.539 245.628 399.489 275.941 390.776 302.94C386.603 315.827 386.358 317.054 388.076 320.122C392.74 328.345 402.558 327.363 406.485 318.158C416.794 293.982 423.421 253.359 421.825 223.66C420.844 207.215 419.616 201.815 416.18 199.974C412.989 198.256 407.221 198.501 404.767 200.219Z" fill="#2CCAB9"/>
<path d="M0.387207 250.291C0.387207 252.623 0.632657 253.605 1.00083 252.378C1.24628 251.273 1.24628 249.309 1.00083 248.082C0.632657 246.978 0.387207 247.96 0.387207 250.291Z" fill="#2CCAB9"/>
<path d="M0.387207 268.7C0.387207 271.032 0.632657 272.014 1.00083 270.786C1.24628 269.682 1.24628 267.718 1.00083 266.491C0.632657 265.387 0.387207 266.368 0.387207 268.7Z" fill="#2CCAB9"/>
</svg>
