<svg width="512" height="512" viewBox="0 0 512 512" fill="none" xmlns="http://www.w3.org/2000/svg">
<g clip-path="url(#clip0_4_148)">
<path d="M438.5 10.4C408.8 16.1 383.5 21 382.3 21.4C379.3 22.4 376.2 26.4 375 30.9C373.2 37.8 374.8 40.2 392 57.5L407.9 73.5L403.3 78.5C400.8 81.2 386.2 96.3 371 112C355.8 127.7 339.8 144.2 335.5 148.7C331.2 153.3 327.2 157 326.6 157C326 157 323.3 154.9 320.5 152.4C314.9 147.2 312.3 144.9 299.3 133.3C287.1 122.4 285.3 121.5 275.5 121.5C263.7 121.5 266.2 119.7 236 150.6C169.3 218.8 174.1 214.2 172.1 212.8C171.2 212.1 163.1 205 154.2 197C145.3 189 136.1 181.5 133.8 180.3C128.9 177.7 120.2 177.3 113.6 179.2C108.9 180.6 108 181.4 50.4001 240.5C-3.6999 295.9 0.000102378 291.7 0.000102378 296.9C0.000102378 301.2 0.300102 301.6 11.7001 313.1C18.1001 319.6 24.8001 325.6 26.6001 326.5C33.1001 329.6 33.6001 329.2 68.7001 293.2C86.8001 274.8 106.4 254.6 112.4 248.4C119.5 240.9 123.7 237.3 124.5 237.8C125.2 238.2 129 241.4 133 245C137 248.6 141.1 252.2 142 253C142.9 253.8 146.9 257.3 150.7 260.8C161 269.9 162.1 270.7 167.8 272.5C177.4 275.7 186 273.1 194.5 264.5C197.2 261.7 208.5 250.2 219.4 238.9C256.1 201.4 276.3 181 276.9 181C277.3 181 285.2 187.8 294.5 196.1C316.1 215.2 318.2 216.5 328 216.5C337.8 216.5 341.4 214.4 354 201.3C359.2 195.9 375.5 179.1 390.1 164C404.7 148.9 422.7 130.3 430 122.7L443.3 108.9L457.5 123C472.1 137.4 472.6 137.8 479.9 137.1C483.4 136.8 487.7 134.3 489.5 131.7C491.3 128.9 512 19.5 512 12.6C512 8.30004 511.6 7.30004 508.1 3.90004C504.5 0.200044 503.9 4.39451e-05 498.4 0.100044C495.1 0.200044 468.2 4.80004 438.5 10.4Z" fill="#13AF9E"/>
<path d="M502.6 157.1C499.8 160.1 495.4 163.3 492.1 164.9C487.2 167.2 485.3 167.5 477 167.4C466.5 167.3 459.7 165.3 451.8 160C449.1 158.1 446.2 157 444 157C440.1 157 442.2 155 392 206.9C378 221.4 363.9 235 360.7 237.2C351.7 243.3 343.1 246.2 331.8 246.8C314.6 247.7 301.7 243.3 289 232.5C283.6 227.9 282 227 278.7 227C275 227 274 227.8 251.6 250.7C238.8 263.8 225.3 277.8 221.5 281.8C212.8 291 202 298.3 192.7 301.2C183.2 304.2 166.3 304.4 158 301.6C149.5 298.7 143.7 295.5 137.3 290.2C129.7 283.9 127.5 282.7 124.1 283.5C122.1 283.9 111.9 293.7 90.2001 315.9C73.0001 333.5 56.9001 349.2 54.3001 350.9C42.0001 359.1 27.1001 360 15.4001 353.5C8.30006 349.5 5.60006 349.4 2.00006 353C5.79837e-05 355 5.80098e-05 356.6 5.80098e-05 420.8C5.80098e-05 497.2 -0.499942 492.6 9.40006 502.6C19.9001 513.1 -7.19995 512 257.5 511.8L489.5 511.5L494.1 509.2C499.9 506.4 506.4 499.9 509.3 494L511.5 489.5V321C511.5 153 511.5 152.5 509.5 152.2C508.2 152 505.9 153.6 502.6 157.1Z" fill="#2CCAB9"/>
</g>
<defs>
<clipPath id="clip0_4_148">
<rect width="512" height="512" fill="white"/>
</clipPath>
</defs>
</svg>
