<svg width="210" height="118" viewBox="0 0 210 118" fill="none" xmlns="http://www.w3.org/2000/svg">
<g filter="url(#filter0_df_266_11228)">
<rect x="15" y="11" width="180" height="88" rx="10" fill="white" shape-rendering="crispEdges"/>
<path d="M34.256 41.098C33.6027 41.098 33.0147 40.986 32.492 40.762C31.9693 40.5287 31.5587 40.202 31.26 39.782C30.9613 39.362 30.812 38.872 30.812 38.312H32.52C32.5573 38.732 32.7207 39.0773 33.01 39.348C33.3087 39.6187 33.724 39.754 34.256 39.754C34.8067 39.754 35.236 39.6233 35.544 39.362C35.852 39.0913 36.006 38.746 36.006 38.326C36.006 37.9993 35.908 37.7333 35.712 37.528C35.5253 37.3227 35.2873 37.164 34.998 37.052C34.718 36.94 34.326 36.8187 33.822 36.688C33.1873 36.52 32.6693 36.352 32.268 36.184C31.876 36.0067 31.54 35.736 31.26 35.372C30.98 35.008 30.84 34.5227 30.84 33.916C30.84 33.356 30.98 32.866 31.26 32.446C31.54 32.026 31.932 31.704 32.436 31.48C32.94 31.256 33.5233 31.144 34.186 31.144C35.1287 31.144 35.8987 31.382 36.496 31.858C37.1027 32.3247 37.4387 32.9687 37.504 33.79H35.74C35.712 33.4353 35.544 33.132 35.236 32.88C34.928 32.628 34.522 32.502 34.018 32.502C33.5607 32.502 33.1873 32.6187 32.898 32.852C32.6087 33.0853 32.464 33.4213 32.464 33.86C32.464 34.1587 32.5527 34.406 32.73 34.602C32.9167 34.7887 33.15 34.938 33.43 35.05C33.71 35.162 34.0927 35.2833 34.578 35.414C35.222 35.5913 35.7447 35.7687 36.146 35.946C36.5567 36.1233 36.902 36.3987 37.182 36.772C37.4713 37.136 37.616 37.626 37.616 38.242C37.616 38.7367 37.4807 39.2033 37.21 39.642C36.9487 40.0807 36.5613 40.4353 36.048 40.706C35.544 40.9673 34.9467 41.098 34.256 41.098ZM46.4852 33.286V41H44.8892V40.09C44.6372 40.4073 44.3059 40.6593 43.8952 40.846C43.4939 41.0233 43.0646 41.112 42.6072 41.112C42.0006 41.112 41.4546 40.986 40.9692 40.734C40.4932 40.482 40.1152 40.1087 39.8352 39.614C39.5646 39.1193 39.4292 38.522 39.4292 37.822V33.286H41.0112V37.584C41.0112 38.2747 41.1839 38.8067 41.5292 39.18C41.8746 39.544 42.3459 39.726 42.9432 39.726C43.5406 39.726 44.0119 39.544 44.3572 39.18C44.7119 38.8067 44.8892 38.2747 44.8892 37.584V33.286H46.4852ZM50.187 34.434C50.4577 34.0607 50.8263 33.7573 51.293 33.524C51.769 33.2813 52.2963 33.16 52.875 33.16C53.5563 33.16 54.1723 33.3233 54.723 33.65C55.2737 33.9767 55.7077 34.4433 56.025 35.05C56.3423 35.6473 56.501 36.3333 56.501 37.108C56.501 37.8827 56.3423 38.578 56.025 39.194C55.7077 39.8007 55.269 40.2767 54.709 40.622C54.1583 40.958 53.547 41.126 52.875 41.126C52.2777 41.126 51.7457 41.0093 51.279 40.776C50.8217 40.5427 50.4577 40.244 50.187 39.88V41H48.591V30.64H50.187V34.434ZM54.877 37.108C54.877 36.576 54.765 36.1187 54.541 35.736C54.3263 35.344 54.037 35.05 53.673 34.854C53.3183 34.6487 52.9357 34.546 52.525 34.546C52.1237 34.546 51.741 34.6487 51.377 34.854C51.0223 35.0593 50.733 35.358 50.509 35.75C50.2943 36.142 50.187 36.604 50.187 37.136C50.187 37.668 50.2943 38.1347 50.509 38.536C50.733 38.928 51.0223 39.2267 51.377 39.432C51.741 39.6373 52.1237 39.74 52.525 39.74C52.9357 39.74 53.3183 39.6373 53.673 39.432C54.037 39.2173 54.3263 38.9093 54.541 38.508C54.765 38.1067 54.877 37.64 54.877 37.108ZM60.8793 41.126C60.2726 41.126 59.7266 41.0187 59.2413 40.804C58.7653 40.58 58.3873 40.2813 58.1073 39.908C57.8273 39.5253 57.678 39.1007 57.6593 38.634H59.3113C59.3393 38.9607 59.4933 39.236 59.7733 39.46C60.0626 39.6747 60.422 39.782 60.8513 39.782C61.2993 39.782 61.6446 39.698 61.8873 39.53C62.1393 39.3527 62.2653 39.1287 62.2653 38.858C62.2653 38.5687 62.1253 38.354 61.8453 38.214C61.5746 38.074 61.1406 37.92 60.5433 37.752C59.9646 37.5933 59.4933 37.4393 59.1293 37.29C58.7653 37.1407 58.448 36.912 58.1773 36.604C57.916 36.296 57.7853 35.89 57.7853 35.386C57.7853 34.9753 57.9066 34.602 58.1493 34.266C58.392 33.9207 58.7373 33.65 59.1853 33.454C59.6426 33.258 60.1653 33.16 60.7533 33.16C61.6306 33.16 62.3353 33.384 62.8673 33.832C63.4086 34.2707 63.698 34.8727 63.7353 35.638H62.1393C62.1113 35.2927 61.9713 35.0173 61.7193 34.812C61.4673 34.6067 61.1266 34.504 60.6973 34.504C60.2773 34.504 59.9553 34.5833 59.7313 34.742C59.5073 34.9007 59.3953 35.1107 59.3953 35.372C59.3953 35.5773 59.47 35.75 59.6193 35.89C59.7686 36.03 59.9506 36.142 60.1653 36.226C60.38 36.3007 60.6973 36.3987 61.1173 36.52C61.6773 36.6693 62.1346 36.8233 62.4893 36.982C62.8533 37.1313 63.166 37.3553 63.4273 37.654C63.6886 37.9527 63.824 38.3493 63.8333 38.844C63.8333 39.2827 63.712 39.6747 63.4693 40.02C63.2266 40.3653 62.8813 40.636 62.4333 40.832C61.9946 41.028 61.4766 41.126 60.8793 41.126ZM65.0258 37.136C65.0258 36.3427 65.1845 35.6473 65.5018 35.05C65.8285 34.4433 66.2765 33.9767 66.8458 33.65C67.4151 33.3233 68.0685 33.16 68.8058 33.16C69.7391 33.16 70.5091 33.384 71.1158 33.832C71.7318 34.2707 72.1471 34.9007 72.3618 35.722H70.6398C70.4998 35.3393 70.2758 35.0407 69.9678 34.826C69.6598 34.6113 69.2725 34.504 68.8058 34.504C68.1525 34.504 67.6298 34.7373 67.2378 35.204C66.8551 35.6613 66.6638 36.3053 66.6638 37.136C66.6638 37.9667 66.8551 38.6153 67.2378 39.082C67.6298 39.5487 68.1525 39.782 68.8058 39.782C69.7298 39.782 70.3411 39.376 70.6398 38.564H72.3618C72.1378 39.348 71.7178 39.9733 71.1018 40.44C70.4858 40.8973 69.7205 41.126 68.8058 41.126C68.0685 41.126 67.4151 40.9627 66.8458 40.636C66.2765 40.3 65.8285 39.8333 65.5018 39.236C65.1845 38.6293 65.0258 37.9293 65.0258 37.136ZM75.5483 34.406C75.7817 34.014 76.0897 33.7107 76.4723 33.496C76.8643 33.272 77.3263 33.16 77.8583 33.16V34.812H77.4523C76.827 34.812 76.351 34.9707 76.0243 35.288C75.707 35.6053 75.5483 36.156 75.5483 36.94V41H73.9523V33.286H75.5483V34.406ZM80.1374 32.264C79.8481 32.264 79.6054 32.166 79.4094 31.97C79.2134 31.774 79.1154 31.5313 79.1154 31.242C79.1154 30.9527 79.2134 30.71 79.4094 30.514C79.6054 30.318 79.8481 30.22 80.1374 30.22C80.4174 30.22 80.6554 30.318 80.8514 30.514C81.0474 30.71 81.1454 30.9527 81.1454 31.242C81.1454 31.5313 81.0474 31.774 80.8514 31.97C80.6554 32.166 80.4174 32.264 80.1374 32.264ZM80.9214 33.286V41H79.3254V33.286H80.9214ZM84.6128 34.434C84.8835 34.0607 85.2521 33.7573 85.7188 33.524C86.1948 33.2813 86.7221 33.16 87.3008 33.16C87.9821 33.16 88.5981 33.3233 89.1488 33.65C89.6995 33.9767 90.1335 34.4433 90.4508 35.05C90.7681 35.6473 90.9268 36.3333 90.9268 37.108C90.9268 37.8827 90.7681 38.578 90.4508 39.194C90.1335 39.8007 89.6948 40.2767 89.1348 40.622C88.5841 40.958 87.9728 41.126 87.3008 41.126C86.7035 41.126 86.1715 41.0093 85.7048 40.776C85.2475 40.5427 84.8835 40.244 84.6128 39.88V41H83.0168V30.64H84.6128V34.434ZM89.3028 37.108C89.3028 36.576 89.1908 36.1187 88.9668 35.736C88.7521 35.344 88.4628 35.05 88.0988 34.854C87.7441 34.6487 87.3615 34.546 86.9508 34.546C86.5495 34.546 86.1668 34.6487 85.8028 34.854C85.4481 35.0593 85.1588 35.358 84.9348 35.75C84.7201 36.142 84.6128 36.604 84.6128 37.136C84.6128 37.668 84.7201 38.1347 84.9348 38.536C85.1588 38.928 85.4481 39.2267 85.8028 39.432C86.1668 39.6373 86.5495 39.74 86.9508 39.74C87.3615 39.74 87.7441 39.6373 88.0988 39.432C88.4628 39.2173 88.7521 38.9093 88.9668 38.508C89.1908 38.1067 89.3028 37.64 89.3028 37.108ZM99.5751 36.954C99.5751 37.2433 99.5564 37.5047 99.5191 37.738H93.6251C93.6717 38.354 93.9004 38.8487 94.3111 39.222C94.7217 39.5953 95.2257 39.782 95.8231 39.782C96.6817 39.782 97.2884 39.4227 97.6431 38.704H99.3651C99.1317 39.4133 98.7071 39.9967 98.0911 40.454C97.4844 40.902 96.7284 41.126 95.8231 41.126C95.0857 41.126 94.4231 40.9627 93.8351 40.636C93.2564 40.3 92.7991 39.8333 92.4631 39.236C92.1364 38.6293 91.9731 37.9293 91.9731 37.136C91.9731 36.3427 92.1317 35.6473 92.4491 35.05C92.7757 34.4433 93.2284 33.9767 93.8071 33.65C94.3951 33.3233 95.0671 33.16 95.8231 33.16C96.5511 33.16 97.1997 33.3187 97.7691 33.636C98.3384 33.9533 98.7817 34.4013 99.0991 34.98C99.4164 35.5493 99.5751 36.2073 99.5751 36.954ZM97.9091 36.45C97.8997 35.862 97.6897 35.3907 97.2791 35.036C96.8684 34.6813 96.3597 34.504 95.7531 34.504C95.2024 34.504 94.7311 34.6813 94.3391 35.036C93.9471 35.3813 93.7137 35.8527 93.6391 36.45H97.9091ZM100.614 37.108C100.614 36.3333 100.772 35.6473 101.09 35.05C101.416 34.4527 101.855 33.9907 102.406 33.664C102.966 33.328 103.586 33.16 104.268 33.16C104.772 33.16 105.266 33.272 105.752 33.496C106.246 33.7107 106.638 34 106.928 34.364V30.64H108.538V41H106.928V39.838C106.666 40.2113 106.302 40.5193 105.836 40.762C105.378 41.0047 104.851 41.126 104.254 41.126C103.582 41.126 102.966 40.958 102.406 40.622C101.855 40.2767 101.416 39.8007 101.09 39.194C100.772 38.578 100.614 37.8827 100.614 37.108ZM106.928 37.136C106.928 36.604 106.816 36.142 106.592 35.75C106.377 35.358 106.092 35.0593 105.738 34.854C105.383 34.6487 105 34.546 104.59 34.546C104.179 34.546 103.796 34.6487 103.442 34.854C103.087 35.05 102.798 35.344 102.574 35.736C102.359 36.1187 102.252 36.576 102.252 37.108C102.252 37.64 102.359 38.1067 102.574 38.508C102.798 38.9093 103.087 39.2173 103.442 39.432C103.806 39.6373 104.188 39.74 104.59 39.74C105 39.74 105.383 39.6373 105.738 39.432C106.092 39.2267 106.377 38.928 106.592 38.536C106.816 38.1347 106.928 37.668 106.928 37.136ZM124.519 31.27V41H122.923V34.336L119.955 41H118.849L115.867 34.336V41H114.271V31.27H115.993L119.409 38.9L122.811 31.27H124.519ZM133.686 36.954C133.686 37.2433 133.668 37.5047 133.63 37.738H127.736C127.783 38.354 128.012 38.8487 128.422 39.222C128.833 39.5953 129.337 39.782 129.934 39.782C130.793 39.782 131.4 39.4227 131.754 38.704H133.476C133.243 39.4133 132.818 39.9967 132.202 40.454C131.596 40.902 130.84 41.126 129.934 41.126C129.197 41.126 128.534 40.9627 127.946 40.636C127.368 40.3 126.91 39.8333 126.574 39.236C126.248 38.6293 126.084 37.9293 126.084 37.136C126.084 36.3427 126.243 35.6473 126.56 35.05C126.887 34.4433 127.34 33.9767 127.918 33.65C128.506 33.3233 129.178 33.16 129.934 33.16C130.662 33.16 131.311 33.3187 131.88 33.636C132.45 33.9533 132.893 34.4013 133.21 34.98C133.528 35.5493 133.686 36.2073 133.686 36.954ZM132.02 36.45C132.011 35.862 131.801 35.3907 131.39 35.036C130.98 34.6813 130.471 34.504 129.864 34.504C129.314 34.504 128.842 34.6813 128.45 35.036C128.058 35.3813 127.825 35.8527 127.75 36.45H132.02ZM144.595 33.16C145.202 33.16 145.743 33.286 146.219 33.538C146.704 33.79 147.082 34.1633 147.353 34.658C147.633 35.1527 147.773 35.75 147.773 36.45V41H146.191V36.688C146.191 35.9973 146.018 35.47 145.673 35.106C145.328 34.7327 144.856 34.546 144.259 34.546C143.662 34.546 143.186 34.7327 142.831 35.106C142.486 35.47 142.313 35.9973 142.313 36.688V41H140.731V36.688C140.731 35.9973 140.558 35.47 140.213 35.106C139.868 34.7327 139.396 34.546 138.799 34.546C138.202 34.546 137.726 34.7327 137.371 35.106C137.026 35.47 136.853 35.9973 136.853 36.688V41H135.257V33.286H136.853V34.168C137.114 33.8507 137.446 33.6033 137.847 33.426C138.248 33.2487 138.678 33.16 139.135 33.16C139.751 33.16 140.302 33.2907 140.787 33.552C141.272 33.8133 141.646 34.1913 141.907 34.686C142.14 34.2193 142.504 33.8507 142.999 33.58C143.494 33.3 144.026 33.16 144.595 33.16ZM151.4 34.434C151.671 34.0607 152.039 33.7573 152.506 33.524C152.982 33.2813 153.509 33.16 154.088 33.16C154.769 33.16 155.385 33.3233 155.936 33.65C156.487 33.9767 156.921 34.4433 157.238 35.05C157.555 35.6473 157.714 36.3333 157.714 37.108C157.714 37.8827 157.555 38.578 157.238 39.194C156.921 39.8007 156.482 40.2767 155.922 40.622C155.371 40.958 154.76 41.126 154.088 41.126C153.491 41.126 152.959 41.0093 152.492 40.776C152.035 40.5427 151.671 40.244 151.4 39.88V41H149.804V30.64H151.4V34.434ZM156.09 37.108C156.09 36.576 155.978 36.1187 155.754 35.736C155.539 35.344 155.25 35.05 154.886 34.854C154.531 34.6487 154.149 34.546 153.738 34.546C153.337 34.546 152.954 34.6487 152.59 34.854C152.235 35.0593 151.946 35.358 151.722 35.75C151.507 36.142 151.4 36.604 151.4 37.136C151.4 37.668 151.507 38.1347 151.722 38.536C151.946 38.928 152.235 39.2267 152.59 39.432C152.954 39.6373 153.337 39.74 153.738 39.74C154.149 39.74 154.531 39.6373 154.886 39.432C155.25 39.2173 155.539 38.9093 155.754 38.508C155.978 38.1067 156.09 37.64 156.09 37.108ZM166.362 36.954C166.362 37.2433 166.344 37.5047 166.306 37.738H160.412C160.459 38.354 160.688 38.8487 161.098 39.222C161.509 39.5953 162.013 39.782 162.61 39.782C163.469 39.782 164.076 39.4227 164.43 38.704H166.152C165.919 39.4133 165.494 39.9967 164.878 40.454C164.272 40.902 163.516 41.126 162.61 41.126C161.873 41.126 161.21 40.9627 160.622 40.636C160.044 40.3 159.586 39.8333 159.25 39.236C158.924 38.6293 158.76 37.9293 158.76 37.136C158.76 36.3427 158.919 35.6473 159.236 35.05C159.563 34.4433 160.016 33.9767 160.594 33.65C161.182 33.3233 161.854 33.16 162.61 33.16C163.338 33.16 163.987 33.3187 164.556 33.636C165.126 33.9533 165.569 34.4013 165.886 34.98C166.204 35.5493 166.362 36.2073 166.362 36.954ZM164.696 36.45C164.687 35.862 164.477 35.3907 164.066 35.036C163.656 34.6813 163.147 34.504 162.54 34.504C161.99 34.504 161.518 34.6813 161.126 35.036C160.734 35.3813 160.501 35.8527 160.426 36.45H164.696ZM169.529 34.406C169.762 34.014 170.07 33.7107 170.453 33.496C170.845 33.272 171.307 33.16 171.839 33.16V34.812H171.433C170.807 34.812 170.331 34.9707 170.005 35.288C169.687 35.6053 169.529 36.156 169.529 36.94V41H167.933V33.286H169.529V34.406ZM176.106 41.126C175.499 41.126 174.953 41.0187 174.468 40.804C173.992 40.58 173.614 40.2813 173.334 39.908C173.054 39.5253 172.905 39.1007 172.886 38.634H174.538C174.566 38.9607 174.72 39.236 175 39.46C175.289 39.6747 175.649 39.782 176.078 39.782C176.526 39.782 176.871 39.698 177.114 39.53C177.366 39.3527 177.492 39.1287 177.492 38.858C177.492 38.5687 177.352 38.354 177.072 38.214C176.801 38.074 176.367 37.92 175.77 37.752C175.191 37.5933 174.72 37.4393 174.356 37.29C173.992 37.1407 173.675 36.912 173.404 36.604C173.143 36.296 173.012 35.89 173.012 35.386C173.012 34.9753 173.133 34.602 173.376 34.266C173.619 33.9207 173.964 33.65 174.412 33.454C174.869 33.258 175.392 33.16 175.98 33.16C176.857 33.16 177.562 33.384 178.094 33.832C178.635 34.2707 178.925 34.8727 178.962 35.638H177.366C177.338 35.2927 177.198 35.0173 176.946 34.812C176.694 34.6067 176.353 34.504 175.924 34.504C175.504 34.504 175.182 34.5833 174.958 34.742C174.734 34.9007 174.622 35.1107 174.622 35.372C174.622 35.5773 174.697 35.75 174.846 35.89C174.995 36.03 175.177 36.142 175.392 36.226C175.607 36.3007 175.924 36.3987 176.344 36.52C176.904 36.6693 177.361 36.8233 177.716 36.982C178.08 37.1313 178.393 37.3553 178.654 37.654C178.915 37.9527 179.051 38.3493 179.06 38.844C179.06 39.2827 178.939 39.6747 178.696 40.02C178.453 40.3653 178.108 40.636 177.66 40.832C177.221 41.028 176.703 41.126 176.106 41.126Z" fill="#26262C"/>
<rect x="30" y="52" width="32" height="32" rx="16" fill="#18B3F1"/>
<path d="M44.336 64.136L41.18 72.5H39.92L36.764 64.136H37.928L40.556 71.348L43.184 64.136H44.336ZM54.0174 64.196V72.5H52.9254V66.308L50.1654 72.5H49.3974L46.6254 66.296V72.5H45.5334V64.196H46.7094L49.7814 71.06L52.8534 64.196H54.0174Z" fill="white"/>
<rect x="50" y="52" width="32" height="32" rx="16" fill="#0D9A5A"/>
<path d="M62.828 72.5L60.836 69.08H59.516V72.5H58.424V64.136H61.124C61.756 64.136 62.288 64.244 62.72 64.46C63.16 64.676 63.488 64.968 63.704 65.336C63.92 65.704 64.028 66.124 64.028 66.596C64.028 67.172 63.86 67.68 63.524 68.12C63.196 68.56 62.7 68.852 62.036 68.996L64.136 72.5H62.828ZM59.516 68.204H61.124C61.716 68.204 62.16 68.06 62.456 67.772C62.752 67.476 62.9 67.084 62.9 66.596C62.9 66.1 62.752 65.716 62.456 65.444C62.168 65.172 61.724 65.036 61.124 65.036H59.516V68.204ZM65.3168 68.312C65.3168 67.496 65.5008 66.764 65.8688 66.116C66.2368 65.46 66.7368 64.948 67.3688 64.58C68.0088 64.212 68.7168 64.028 69.4928 64.028C70.4048 64.028 71.2008 64.248 71.8808 64.688C72.5608 65.128 73.0568 65.752 73.3688 66.56H72.0608C71.8288 66.056 71.4928 65.668 71.0528 65.396C70.6208 65.124 70.1008 64.988 69.4928 64.988C68.9088 64.988 68.3848 65.124 67.9208 65.396C67.4568 65.668 67.0928 66.056 66.8288 66.56C66.5648 67.056 66.4328 67.64 66.4328 68.312C66.4328 68.976 66.5648 69.56 66.8288 70.064C67.0928 70.56 67.4568 70.944 67.9208 71.216C68.3848 71.488 68.9088 71.624 69.4928 71.624C70.1008 71.624 70.6208 71.492 71.0528 71.228C71.4928 70.956 71.8288 70.568 72.0608 70.064H73.3688C73.0568 70.864 72.5608 71.484 71.8808 71.924C71.2008 72.356 70.4048 72.572 69.4928 72.572C68.7168 72.572 68.0088 72.392 67.3688 72.032C66.7368 71.664 66.2368 71.156 65.8688 70.508C65.5008 69.86 65.3168 69.128 65.3168 68.312Z" fill="white"/>
<rect x="70" y="52" width="32" height="32" rx="16" fill="#C76210"/>
<path d="M77.516 68.312C77.516 67.496 77.7 66.764 78.068 66.116C78.436 65.46 78.936 64.948 79.568 64.58C80.208 64.212 80.916 64.028 81.692 64.028C82.604 64.028 83.4 64.248 84.08 64.688C84.76 65.128 85.256 65.752 85.568 66.56H84.26C84.028 66.056 83.692 65.668 83.252 65.396C82.82 65.124 82.3 64.988 81.692 64.988C81.108 64.988 80.584 65.124 80.12 65.396C79.656 65.668 79.292 66.056 79.028 66.56C78.764 67.056 78.632 67.64 78.632 68.312C78.632 68.976 78.764 69.56 79.028 70.064C79.292 70.56 79.656 70.944 80.12 71.216C80.584 71.488 81.108 71.624 81.692 71.624C82.3 71.624 82.82 71.492 83.252 71.228C83.692 70.956 84.028 70.568 84.26 70.064H85.568C85.256 70.864 84.76 71.484 84.08 71.924C83.4 72.356 82.604 72.572 81.692 72.572C80.916 72.572 80.208 72.392 79.568 72.032C78.936 71.664 78.436 71.156 78.068 70.508C77.7 69.86 77.516 69.128 77.516 68.312ZM92.1375 70.64H88.4895L87.8175 72.5H86.6655L89.6895 64.184H90.9495L93.9615 72.5H92.8095L92.1375 70.64ZM91.8255 69.752L90.3135 65.528L88.8015 69.752H91.8255Z" fill="white"/>
<rect x="90" y="52" width="32" height="32" rx="16" fill="#510FC3"/>
<path d="M106.408 64.196V72.5H105.316V66.308L102.556 72.5H101.788L99.016 66.296V72.5H97.924V64.196H99.1L102.172 71.06L105.244 64.196H106.408ZM112.664 72.5L110.672 69.08H109.352V72.5H108.26V64.136H110.96C111.592 64.136 112.124 64.244 112.556 64.46C112.996 64.676 113.324 64.968 113.54 65.336C113.756 65.704 113.864 66.124 113.864 66.596C113.864 67.172 113.696 67.68 113.36 68.12C113.032 68.56 112.536 68.852 111.872 68.996L113.972 72.5H112.664ZM109.352 68.204H110.96C111.552 68.204 111.996 68.06 112.292 67.772C112.588 67.476 112.736 67.084 112.736 66.596C112.736 66.1 112.588 65.716 112.292 65.444C112.004 65.172 111.56 65.036 110.96 65.036H109.352V68.204Z" fill="white"/>
<rect x="110" y="52" width="32" height="32" rx="16" fill="#E6EAED"/>
<path d="M125.164 68.576H122.608V71.168H121.588V68.576H119.044V67.652H121.588V65.048H122.608V67.652H125.164V68.576ZM132.467 64.772H128.255V67.508C128.439 67.252 128.711 67.044 129.071 66.884C129.431 66.716 129.819 66.632 130.235 66.632C130.899 66.632 131.439 66.772 131.855 67.052C132.271 67.324 132.567 67.68 132.743 68.12C132.927 68.552 133.019 69.012 133.019 69.5C133.019 70.076 132.911 70.592 132.695 71.048C132.479 71.504 132.147 71.864 131.699 72.128C131.259 72.392 130.711 72.524 130.055 72.524C129.215 72.524 128.535 72.308 128.015 71.876C127.495 71.444 127.179 70.868 127.067 70.148H128.135C128.239 70.604 128.459 70.96 128.795 71.216C129.131 71.472 129.555 71.6 130.067 71.6C130.699 71.6 131.175 71.412 131.495 71.036C131.815 70.652 131.975 70.148 131.975 69.524C131.975 68.9 131.815 68.42 131.495 68.084C131.175 67.74 130.703 67.568 130.079 67.568C129.655 67.568 129.283 67.672 128.963 67.88C128.651 68.08 128.423 68.356 128.279 68.708H127.247V63.812H132.467V64.772Z" fill="#26262C"/>
</g>
<defs>
<filter id="filter0_df_266_11228" x="0" y="0" width="210" height="118" filterUnits="userSpaceOnUse" color-interpolation-filters="sRGB">
<feFlood flood-opacity="0" result="BackgroundImageFix"/>
<feColorMatrix in="SourceAlpha" type="matrix" values="0 0 0 0 0 0 0 0 0 0 0 0 0 0 0 0 0 0 127 0" result="hardAlpha"/>
<feOffset dy="4"/>
<feGaussianBlur stdDeviation="7.5"/>
<feComposite in2="hardAlpha" operator="out"/>
<feColorMatrix type="matrix" values="0 0 0 0 0 0 0 0 0 0 0 0 0 0 0 0 0 0 0.15 0"/>
<feBlend mode="normal" in2="BackgroundImageFix" result="effect1_dropShadow_266_11228"/>
<feBlend mode="normal" in="SourceGraphic" in2="effect1_dropShadow_266_11228" result="shape"/>
<feGaussianBlur stdDeviation="1.5" result="effect2_foregroundBlur_266_11228"/>
</filter>
</defs>
</svg>
