<svg width="61" height="51" viewBox="0 0 61 51" fill="none" xmlns="http://www.w3.org/2000/svg">
<g clip-path="url(#clip0_58_425)">
<path d="M60.2106 26.9073C60.1726 26.8758 60.1173 26.8659 60.0742 26.8804C60.0217 26.8965 59.9735 26.9106 59.928 26.9239L59.9058 26.9304C59.7937 26.9631 59.6969 26.9912 59.601 27.0298C58.0857 27.6318 56.8927 28.6634 55.9537 30.1831C55.7219 30.5586 55.5423 30.9489 55.3992 31.3382C55.6338 30.0289 55.6882 29.5188 55.7297 28.0537C55.7317 27.9922 55.7317 27.9297 55.7317 27.8676C55.7317 27.6982 55.7317 27.538 55.7687 27.392C55.8131 27.2189 55.9024 27.0462 55.9888 26.8792C56.0131 26.8319 56.0374 26.7846 56.0575 26.7431C56.0645 26.7349 56.087 26.7212 56.0957 26.7198C56.5291 26.6536 56.9123 26.4697 57.2676 26.1574C57.6256 25.8413 57.92 25.4543 58.1428 25.0069C58.9424 23.4034 59.3425 21.6309 59.3324 19.7395C59.3315 19.557 59.3101 19.3794 59.2865 19.1862C59.2758 19.0996 59.2649 19.0111 59.2558 18.9194C59.2507 18.8691 59.2197 18.8244 59.1749 18.8027C59.1306 18.7812 59.0772 18.7827 59.0324 18.8098C59.0054 18.8267 58.9823 18.8404 58.9613 18.8527C58.9207 18.8768 58.8897 18.8957 58.8604 18.9169C58.1783 19.4058 57.5766 20.0145 57.072 20.7257C56.2484 21.888 55.7695 23.2023 55.6405 24.6482C55.6276 24.487 55.6146 24.3258 55.6016 24.1646L55.5971 24.1062C55.5465 23.4743 55.4943 22.8209 55.4517 22.1783C55.4409 22.0157 55.4097 21.8574 55.3795 21.7042C55.3212 21.4098 55.266 21.1317 55.3542 20.8403C55.3743 20.7745 55.3912 20.7082 55.4082 20.642C55.4498 20.4781 55.6512 20.2257 55.9604 19.9497L55.972 19.9393C56.0861 19.8427 56.6718 19.3067 57.0041 18.2467C57.3414 17.1697 57.3159 16.0444 57.2973 15.2226L57.2969 15.2007C57.2721 14.0712 57.1501 13.22 56.9011 12.4405C56.869 12.3408 56.8307 12.2424 56.7903 12.1391C56.7693 12.0853 56.7478 12.0297 56.7258 11.9716C56.7076 11.9224 56.6641 11.8866 56.6132 11.8781L56.5883 11.8758C56.5442 11.8758 56.503 11.8956 56.475 11.9298L56.2332 12.2245C55.0737 13.6386 54.5041 15.2971 54.5398 17.1541C54.546 17.4811 54.5704 17.8166 54.6138 18.163C54.3191 17.146 53.9735 16.156 53.5805 15.2036C53.5723 15.1828 53.567 15.1569 53.5664 15.135L53.5637 15.0048C53.5596 14.8169 53.5554 14.6225 53.5634 14.4313C53.5646 14.3996 53.5851 14.3426 53.6279 14.2866C53.6886 14.2064 53.756 14.128 53.8258 14.0464C53.9446 13.9081 54.0674 13.7652 54.1647 13.602C54.478 13.0773 54.6251 12.4574 54.6275 11.6509C54.6318 10.7016 54.4854 9.70255 54.1664 8.50668C53.9921 7.8543 53.7289 7.00676 53.2389 6.23837C53.2057 6.18671 53.1685 6.13807 53.129 6.08656C53.1111 6.06375 53.0924 6.03943 53.0734 6.0133C53.0456 5.97599 53.0072 5.95424 52.9453 5.95424C52.8959 5.95787 52.8518 5.98596 52.8272 6.02962C52.2121 7.13968 51.9058 8.32557 51.8913 9.65512C51.8789 10.7637 52.052 11.7175 52.269 12.4714C51.7166 11.4623 51.1028 10.4873 50.4374 9.56237L50.4221 9.54138C50.407 9.52129 50.4007 9.51147 50.4018 9.51842C50.3599 9.21919 50.3309 8.97977 50.3108 8.77132C50.3113 8.76815 50.3152 8.75063 50.3463 8.69867C50.3903 8.62375 50.4385 8.55034 50.4897 8.4727C50.5924 8.31651 50.6984 8.15489 50.7664 7.97393C50.9715 7.42773 51.0176 6.80828 50.9069 6.08082C50.6638 4.47078 49.954 3.021 48.7375 1.64842C48.6123 1.50749 48.4739 1.38287 48.3275 1.25116L48.2871 1.21445C48.2298 1.16264 48.171 1.10962 48.1117 1.05358C48.0739 1.01764 48.0199 1.00419 47.9674 1.0196C47.9179 1.03531 47.8797 1.07639 47.8679 1.12745L47.8413 1.24406C47.8232 1.3214 47.8091 1.38242 47.7987 1.44375C47.635 2.42103 47.6469 3.46781 47.8354 4.64419C48.0224 5.8109 48.3951 6.81719 48.9668 7.69132C48.1094 6.68109 47.2755 5.8328 46.4039 5.08102C46.4 5.07589 46.3943 5.06033 46.3938 5.0564C46.4619 4.46957 46.3172 3.91673 45.9511 3.36631C45.4703 2.64293 44.8022 2.0916 43.9654 1.72787C43.4646 1.51066 42.9458 1.31838 42.4378 1.13002C42.1945 1.03969 41.9511 0.949662 41.7005 0.853142C41.4487 0.752996 41.341 0.735172 41.2826 0.789247C41.2073 0.859334 41.2255 0.91915 41.2583 1.02791L41.2688 1.0634C41.5759 2.09779 41.9834 2.91587 42.515 3.56433C43.4908 4.75596 44.632 5.36137 46.002 5.41484C46.05 5.41771 46.0881 5.43101 46.1036 5.44309C46.2965 5.58749 46.4385 5.70305 46.564 5.81754C46.961 6.18036 47.3519 6.5669 47.7344 6.97398C47.1655 6.62052 46.4702 6.46101 45.6872 6.50059C45.2587 6.52219 44.8333 6.58503 44.422 6.64575L44.4063 6.64817C44.2847 6.66599 44.1637 6.68366 44.043 6.70073C43.7787 6.73653 43.5122 6.78336 43.2769 6.82444C43.1816 6.84151 42.9539 6.89332 42.9015 7.00374C42.8834 7.0415 42.8849 7.08289 42.9055 7.1205C42.9236 7.15328 42.9435 7.18409 42.9653 7.21219C43.6445 8.09356 44.4194 8.67405 45.3342 8.98657C46.4495 9.36963 47.474 9.33806 48.3945 8.88748C48.5352 8.80999 48.705 8.77072 48.899 8.77072C49.0453 8.77072 49.1551 8.79383 49.1915 8.80214C49.2461 8.8112 49.3201 8.84171 49.3352 8.86135C49.9077 9.61403 50.451 10.4179 50.9584 11.2624C50.5297 10.8455 49.9707 10.5644 49.2091 10.3814C48.5416 10.2223 47.8591 10.1882 47.1993 10.1549L46.9784 10.1438C46.7714 10.1332 46.5645 10.1201 46.3514 10.1066L45.994 10.0846C45.9477 10.0846 45.9038 10.1069 45.8769 10.1441C45.8472 10.1841 45.84 10.2361 45.8576 10.2827C45.8719 10.3217 45.8981 10.3904 45.9115 10.4134C46.6074 11.5774 47.4246 12.3825 48.4094 12.8749C49.3722 13.3558 50.2421 13.483 51.1195 13.2732C51.221 13.2487 51.3387 13.2357 51.4603 13.2357C51.8336 13.2357 52.0938 13.3496 52.1485 13.4551C52.6313 14.4509 53.062 15.4858 53.4336 16.5413C53.0439 16.004 52.4989 15.5676 51.8089 15.2412C51.1235 14.9177 50.4098 14.6219 49.7075 14.3308C49.4057 14.2061 49.1027 14.0809 48.8011 13.9528C48.7562 13.9331 48.7032 13.9372 48.6614 13.9648C48.6203 13.9922 48.5958 14.0378 48.5958 14.0869C48.5958 14.1812 49.5973 16.9606 51.0517 18.0559C51.645 18.5027 52.3758 18.9623 53.2974 18.9839C53.5732 18.9895 53.8584 19.0285 54.0738 19.2733C54.1067 19.3123 54.1504 19.3427 54.1979 19.3588C54.2715 19.383 54.2917 19.428 54.328 19.5815C54.6265 20.8346 54.8438 22.1262 54.9777 23.4378C54.9372 23.3047 54.8902 23.1703 54.8363 23.0342C54.5108 22.2087 53.9629 21.4864 53.1122 20.7609C52.6737 20.3854 52.2145 20.0218 51.7704 19.67L51.7493 19.6534C51.547 19.4931 51.3452 19.3335 51.144 19.1718C51.1025 19.1385 51.062 19.104 51.015 19.0638L50.8895 18.9563C50.8455 18.9191 50.7801 18.9114 50.7288 18.9371C50.6761 18.9638 50.6445 19.0191 50.6486 19.0782C50.6548 19.1669 50.6597 19.2507 50.6644 19.3312L50.6668 19.3688C50.6768 19.5345 50.6862 19.6908 50.7029 19.8452C50.8603 21.3483 51.3073 22.6032 52.0693 23.6816C52.5411 24.3482 53.2178 25.1629 54.273 25.5483C54.5298 25.6425 54.716 25.7853 54.9156 26.0414C55.1038 26.2813 55.1388 26.5005 55.1346 26.7763C55.1166 27.9317 55.0343 29.0778 54.8891 30.2003C54.8552 29.8879 54.7833 29.5663 54.6728 29.2322C54.4443 28.5404 54.0881 27.8678 53.5838 27.176C53.1484 26.5769 52.6954 25.9757 52.2574 25.394L52.2283 25.3552C52.0545 25.1249 51.881 24.8942 51.712 24.6685C51.6802 24.6222 51.6345 24.6056 51.608 24.5963C51.5706 24.5781 51.5259 24.5763 51.4861 24.5932C51.4472 24.6098 51.4173 24.6426 51.4041 24.6827L51.399 24.6985C51.3917 24.7196 51.386 24.7383 51.383 24.7571C51.0809 26.5585 51.2662 28.1724 51.9494 29.6917C52.2831 30.4346 52.7306 31.2756 53.5197 31.8807C53.88 32.157 54.1644 32.5446 54.3206 32.9719C54.3537 33.0639 54.3525 33.1038 54.3487 33.1192C54.0147 34.5025 53.5785 35.8367 53.0481 37.0995C53.1847 36.434 53.1753 35.7349 53.0194 35.0106C52.7982 33.9841 52.4178 32.9893 52.0786 32.1374L51.9769 31.8822C51.8179 31.483 51.6577 31.0806 51.4923 30.6636C51.4713 30.6102 51.4207 30.5738 51.3532 30.5705C51.3 30.5705 51.2511 30.6009 51.2257 30.6501L51.1724 30.7504C51.149 30.7944 51.1271 30.8353 51.1084 30.8776C50.4259 32.4174 50.1954 33.9959 50.4237 35.5692C50.5868 36.6942 50.8632 37.4998 51.32 38.1813C51.5564 38.5336 51.781 38.926 51.8218 39.4086C51.8314 39.5228 51.8269 39.6015 51.776 39.6911C51.1999 40.6999 50.554 41.652 49.8466 42.5365C49.8494 42.5317 49.8519 42.5269 49.8547 42.522C50.3635 41.592 50.3789 40.5865 50.327 39.7253C50.2821 38.9872 50.1975 38.25 50.1161 37.5374L50.1114 37.4962C50.0787 37.2107 50.046 36.9253 50.0163 36.6394C49.9991 36.4773 49.9799 36.3152 49.9601 36.1508L49.934 35.9281C49.9282 35.8789 49.8982 35.8363 49.855 35.8148C49.7746 35.7728 49.6445 35.8376 49.5041 36.0038C48.5387 37.1456 47.9396 38.4358 47.7233 39.8389C47.499 41.2937 47.6206 42.5387 48.0955 43.6449C48.1082 43.6744 48.1079 43.7345 48.1078 43.7546L48.0822 44.3911C48.0785 44.4369 48.0543 44.4886 48.0344 44.5077C47.0704 45.4361 46.0091 46.2432 44.8702 46.9149C45.4093 46.4276 45.7968 45.7918 46.048 44.9861C46.3264 44.0931 46.4693 43.1637 46.6078 42.2625L46.6199 42.1823C46.669 41.8657 46.7202 41.5497 46.7725 41.2268L46.8315 40.8617C46.84 40.8085 46.819 40.7554 46.7778 40.7235C46.7368 40.6909 46.6776 40.683 46.6305 40.7032L46.579 40.7245C46.524 40.7471 46.4761 40.7671 46.431 40.7903C44.2779 41.8656 42.8606 44.3736 43.0609 46.7536C43.0923 47.1263 43.0582 47.4765 42.9564 47.8233C42.9468 47.8549 42.9163 47.8891 42.9039 47.8949C41.8813 48.3261 40.909 48.6408 39.9307 48.8568C39.8804 48.8684 39.8405 48.9043 39.8242 48.9528C39.8077 49.0016 39.8177 49.0546 39.8512 49.0945C39.9576 49.2205 40.0502 49.356 40.1263 49.4978C40.1576 49.5558 40.232 49.5856 40.2878 49.5711C41.0848 49.3892 41.8611 49.1537 42.5956 48.8707C42.655 48.8468 42.7003 48.8355 42.7428 48.8424C42.9062 48.8642 43.0789 48.8977 43.2705 48.9453C43.3101 48.9549 43.3435 48.9716 43.3435 48.9716C43.7622 49.8063 44.4818 50.338 45.5441 50.5967C45.7753 50.6521 46.0136 50.6931 46.2526 50.7182C46.5027 50.7446 46.7817 50.758 47.0815 50.758C47.4969 50.758 47.7931 50.7324 47.7967 50.7321C48.7175 50.629 49.5039 50.4218 50.2004 50.0984C50.4862 49.9659 50.8119 49.7875 51.0621 49.469C51.11 49.4079 51.102 49.3199 51.0439 49.2687C50.3364 48.6444 49.616 48.1908 48.8413 47.882C47.6934 47.4259 46.6479 47.3023 45.623 47.4994C45.4698 47.5292 45.3203 47.5667 45.175 47.6097C46.1337 47.0366 47.0516 46.3631 47.9185 45.5958C47.9351 45.5806 47.9625 45.5674 47.9838 45.5636C48.1256 45.54 48.3139 45.511 48.5067 45.4971C48.5245 45.4971 48.5472 45.5057 48.5497 45.5066C49.0721 46.0912 49.745 46.3753 50.607 46.3753C50.651 46.3753 50.6951 46.3744 50.7391 46.3729C51.6763 46.3427 52.6186 46.0852 53.5401 45.6071C54.2099 45.2577 54.908 44.8509 55.4742 44.2443C55.5997 44.1094 55.7118 43.9569 55.8107 43.8223L55.8204 43.8091C55.8642 43.7498 55.9084 43.69 55.9539 43.6309C55.9787 43.599 55.9891 43.5579 55.9826 43.5165C55.9756 43.4767 55.9525 43.4412 55.9131 43.4155C55.9031 43.4101 55.6634 43.2815 55.4446 43.1968C53.9791 42.6305 52.4995 42.5725 51.0881 43.0273C50.6261 43.1758 50.1912 43.3987 49.7678 43.7069C50.5508 42.7966 51.2759 41.7988 51.9342 40.7251C51.9413 40.7138 51.96 40.6832 51.966 40.6776C52.0236 40.6409 52.0825 40.6061 52.1412 40.5718C52.2465 40.5101 52.3556 40.4462 52.458 40.37C52.5444 40.3055 52.5687 40.3039 52.656 40.3601C52.7796 40.4403 52.9232 40.482 53.0485 40.5147C53.781 40.7023 54.5195 40.6088 55.3364 40.2253C56.0826 39.8755 56.6563 39.3225 57.1653 38.7772C57.9058 37.9818 58.3896 37.2641 58.6881 36.5186C58.7507 36.3621 58.7954 36.2003 58.842 36.0311C58.8612 35.9601 58.8808 35.8891 58.9016 35.8194C58.9244 35.7444 58.8846 35.6651 58.8106 35.639L58.7492 35.6343C58.4473 35.6343 55.7538 35.6786 54.1783 37.2072C53.8356 37.5398 53.5283 37.8933 53.2478 38.2803C53.8711 36.9604 54.3996 35.5694 54.8256 34.1255L54.8317 34.1043C54.8369 34.0867 54.8446 34.0599 54.8497 34.0527L55.2618 33.4868C55.2772 33.4642 55.279 33.4642 55.3032 33.4642C55.3139 33.4642 55.3257 33.4649 55.3391 33.4657L55.4272 33.471C55.7338 33.49 55.9143 33.4873 56.0628 33.464C56.6495 33.3714 57.1791 33.076 57.6816 32.5606C58.8569 31.3552 59.6659 29.8514 60.1547 27.9635C60.2072 27.7613 60.2218 27.5571 60.2375 27.3405C60.2445 27.2423 60.2522 27.1411 60.2633 27.0366C60.268 26.9864 60.2484 26.9385 60.2106 26.9073Z" fill="#F1C71D"/>
<path d="M20.3331 48.8545C19.3557 48.6387 18.3835 48.324 17.3606 47.8928C17.3484 47.887 17.318 47.8527 17.3085 47.8219C17.2065 47.4744 17.1724 47.1242 17.2038 46.7514C17.4041 44.3713 15.9868 41.8635 13.8342 40.7883C13.7884 40.765 13.7407 40.7449 13.6857 40.7224L13.6347 40.7013C13.5862 40.6806 13.5271 40.6892 13.488 40.7206C13.4457 40.7532 13.4247 40.8064 13.4333 40.8597L13.4922 41.2247C13.5445 41.5476 13.5957 41.8636 13.6448 42.1799L13.6572 42.2627C13.7954 43.1616 13.9383 44.0911 14.2167 44.9842C14.4679 45.7899 14.8555 46.4256 15.3946 46.9128C14.2556 46.2412 13.1944 45.4341 12.2305 44.5059C12.2103 44.4864 12.1863 44.4348 12.1828 44.3922L12.157 43.7552C12.1568 43.7326 12.1565 43.6724 12.1693 43.6427C12.6441 42.5367 12.7657 41.2917 12.5414 39.837C12.3251 38.4339 11.726 37.1436 10.7606 36.0018C10.6477 35.8681 10.548 35.8005 10.4643 35.8005C10.4439 35.8005 10.4255 35.8045 10.411 35.8121C10.3666 35.8342 10.3365 35.8769 10.3306 35.9263L10.3048 36.1485C10.2848 36.3134 10.2657 36.4754 10.2484 36.6376C10.2187 36.9234 10.1861 37.2087 10.1533 37.4942L10.1486 37.5354C10.067 38.2482 9.98244 38.9854 9.93773 39.7234C9.88577 40.5844 9.90117 41.5899 10.4101 42.5201C10.4128 42.5248 10.4152 42.5297 10.4179 42.5344C9.71055 41.6499 9.06481 40.698 8.4887 39.6893C8.4378 39.5995 8.43342 39.5208 8.44294 39.4066C8.48387 38.9237 8.70833 38.5313 8.94472 38.1794C9.40135 37.4978 9.67777 36.6923 9.84105 35.5672C10.0693 33.9939 9.83879 32.4156 9.15634 30.8758C9.13761 30.8333 9.11571 30.7924 9.0923 30.7485L9.03898 30.6479C9.01345 30.5988 8.95892 30.5664 8.90137 30.569C8.84397 30.572 8.79337 30.6084 8.77253 30.6613C8.60698 31.0788 8.44686 31.481 8.28781 31.8803L8.18615 32.1354C7.84689 32.9875 7.4664 33.9823 7.24526 35.0087C7.08938 35.733 7.07986 36.432 7.21656 37.0975C6.68608 35.8349 6.24999 34.5007 5.91602 33.1172C5.91225 33.1018 5.91104 33.0619 5.94412 32.9699C6.1003 32.5425 6.38473 32.1549 6.74514 31.8786C7.53407 31.2735 7.98163 30.4325 8.3153 29.6896C8.9985 28.1703 9.18384 26.5564 8.88174 24.7551C8.87856 24.7362 8.87282 24.7175 8.86603 24.6971L8.86059 24.6808C8.84745 24.6405 8.81754 24.6078 8.77797 24.5908C8.7393 24.5746 8.69066 24.5776 8.6606 24.5924C8.63039 24.6034 8.58462 24.6202 8.55486 24.6639C8.38388 24.8923 8.21032 25.1228 8.03661 25.3531L8.00746 25.3919C7.56942 25.9736 7.11642 26.5748 6.68109 27.1737C6.17674 27.8657 5.82056 28.5383 5.59202 29.2301C5.48175 29.5642 5.4097 29.8858 5.37572 30.1982C5.23056 29.0757 5.14824 27.9297 5.13026 26.7742C5.12603 26.4984 5.16108 26.2792 5.34944 26.0392C5.54882 25.7833 5.73507 25.6404 5.99185 25.5461C7.04693 25.1607 7.72379 24.3461 8.19552 23.6795C8.95756 22.6011 9.40452 21.3464 9.56191 19.8434C9.57868 19.6887 9.5882 19.5322 9.59801 19.3667L9.60043 19.3291C9.60511 19.2486 9.6101 19.1647 9.61644 19.0759C9.62037 19.017 9.5888 18.9617 9.53608 18.935C9.48503 18.9093 9.41963 18.9169 9.37522 18.9545L9.25 19.0617C9.20287 19.1019 9.16254 19.1363 9.1207 19.1699C8.91965 19.3314 8.71785 19.4912 8.51559 19.6514L8.49444 19.668C8.05051 20.0197 7.59132 20.3833 7.15282 20.7588C6.30196 21.4844 5.7541 22.2067 5.42859 23.0322C5.37481 23.1683 5.32768 23.3029 5.2872 23.4361C5.42103 22.1244 5.63839 20.8326 5.93687 19.5794C5.97312 19.4261 5.99336 19.381 6.06783 19.3566C6.11465 19.3407 6.15831 19.3102 6.19018 19.2724C6.40663 19.0264 6.69166 18.9874 6.96778 18.9818C7.88919 18.9602 8.61997 18.5006 9.21314 18.0538C10.6676 16.9584 11.6691 14.179 11.6691 14.0848C11.6691 14.0357 11.6446 13.9899 11.6031 13.9623C11.5621 13.9352 11.5068 13.9315 11.4651 13.95C11.1621 14.0786 10.8591 14.2038 10.5454 14.3336C9.8551 14.6198 9.14139 14.9156 8.45593 15.239C7.76608 15.5654 7.22094 16.0019 6.83123 16.539C7.20267 15.4837 7.63331 14.449 8.11546 13.4546C8.1709 13.3474 8.43131 13.2335 8.8047 13.2335C8.92615 13.2335 9.04381 13.2465 9.14547 13.2709C10.0228 13.4812 10.8927 13.3537 11.8555 12.8726C12.8405 12.3802 13.6576 11.5751 14.3537 10.4107C14.367 10.3882 14.3931 10.3194 14.4071 10.2809C14.4248 10.2338 14.4177 10.1818 14.3884 10.1424C14.3612 10.1049 14.3177 10.0826 14.2623 10.0826H14.2611L13.9134 10.1045C13.7002 10.1179 13.4933 10.1311 13.2864 10.1417L13.0654 10.1528C12.4056 10.1861 11.7231 10.2202 11.0555 10.3793C10.2941 10.5623 9.73502 10.8434 9.30634 11.2603C9.81371 10.4158 10.357 9.61222 10.9294 8.85954C10.9448 8.8396 11.0186 8.80909 11.0792 8.79897C11.1094 8.79187 11.2194 8.76876 11.3656 8.76876C11.5595 8.76876 11.7293 8.80818 11.8733 8.88733C12.7879 9.33459 13.815 9.36782 14.9302 8.98476C15.845 8.67223 16.6197 8.09175 17.2988 7.21068C17.3209 7.18228 17.3408 7.15131 17.359 7.11869C17.3797 7.08108 17.381 7.03969 17.3629 7.00193C17.3103 6.89166 17.0828 6.83985 16.9871 6.82263C16.752 6.78154 16.4857 6.73472 16.2217 6.69892C16.1007 6.682 15.9796 6.66433 15.8581 6.64635L15.8426 6.64394C15.4311 6.58321 15.0058 6.52038 14.5772 6.49878C13.7942 6.45875 13.0989 6.61856 12.5299 6.97232C12.9125 6.56509 13.3034 6.1787 13.7004 5.81573C13.8259 5.70123 13.9679 5.58583 14.1614 5.44098C14.1763 5.4295 14.2144 5.41605 14.2611 5.41333C15.6325 5.35971 16.7736 4.7543 17.7494 3.56282C18.281 2.91421 18.6885 2.09613 18.9956 1.06174L19.0062 1.02625C19.0389 0.917489 19.0571 0.857673 18.9817 0.787586C18.9235 0.73351 18.8211 0.749522 18.555 0.854955C18.3133 0.94785 18.0701 1.03803 17.8204 1.13062C17.3188 1.31656 16.7999 1.50885 16.2992 1.72606C15.4624 2.08978 14.7941 2.64111 14.3133 3.36449C13.9472 3.91492 13.8025 4.46791 13.8706 5.05217C13.8702 5.05867 13.8644 5.07423 13.8635 5.07604C12.99 5.83023 12.155 6.67928 11.2976 7.68981C11.8694 6.81568 12.242 5.80924 12.429 4.64253C12.6175 3.4663 12.6294 2.41937 12.4657 1.44209C12.4553 1.38091 12.4412 1.31974 12.4233 1.24315L12.3965 1.12518C12.3844 1.07458 12.3464 1.03365 12.2964 1.01794C12.2464 1.00313 12.1903 1.01628 12.153 1.05177C12.0932 1.10811 12.0346 1.16128 11.9774 1.21294L11.937 1.24935C11.7905 1.38136 11.6521 1.50598 11.5269 1.64691C10.3102 3.0195 9.60058 4.46927 9.35754 6.07916C9.24682 6.80677 9.29274 7.42622 9.49802 7.97242C9.56599 8.15338 9.67203 8.315 9.77761 8.47542C9.82595 8.54868 9.87429 8.62224 9.91854 8.69776C9.95117 8.75199 9.95389 8.76604 9.95374 8.76347C9.93365 8.97872 9.9048 9.21858 9.86583 9.50648C9.86416 9.51011 9.85873 9.51857 9.84136 9.54153L9.82731 9.56101C9.16193 10.4859 8.54807 11.4609 7.99568 12.4701C8.21289 11.7163 8.38584 10.7623 8.3736 9.65376C8.3588 8.32407 8.05262 7.13817 7.43725 6.02781C7.41293 5.9846 7.36882 5.95651 7.30704 5.95228C7.26218 5.95228 7.21898 5.97448 7.19073 6.0124C7.17231 6.03808 7.15357 6.06224 7.13575 6.0852C7.09602 6.13656 7.05887 6.1852 7.02564 6.23716C6.53563 7.00555 6.2728 7.85279 6.09834 8.50517C5.77947 9.70164 5.63296 10.7007 5.63719 11.6494C5.6396 12.4559 5.78657 13.0758 6.09985 13.6004C6.19728 13.7637 6.31993 13.9065 6.44319 14.0503C6.50859 14.1266 6.57581 14.205 6.63668 14.2854C6.67928 14.3413 6.69982 14.3982 6.70103 14.4299C6.70904 14.6212 6.70481 14.8156 6.70073 15.0035L6.69786 15.1334C6.6974 15.1557 6.69227 15.1814 6.68457 15.201C6.29123 16.154 5.94548 17.1445 5.65063 18.1616C5.69398 17.8153 5.71845 17.4799 5.72464 17.1528C5.76029 15.2958 5.19068 13.6374 4.03122 12.2231L3.78954 11.9287C3.7616 11.8941 3.72021 11.8745 3.6761 11.8745L3.65194 11.8766C3.60028 11.8852 3.55678 11.921 3.5388 11.9698C3.51675 12.0285 3.49515 12.084 3.47415 12.1376C3.43367 12.2412 3.39545 12.3394 3.36313 12.4392C3.11435 13.2185 2.9923 14.0698 2.96753 15.1991L2.96708 15.2211C2.9485 16.0427 2.92297 17.1682 3.26042 18.2452C3.59257 19.3054 4.17835 19.8411 4.29193 19.9374L4.30402 19.9482C4.61322 20.2242 4.81457 20.4766 4.85626 20.6405C4.87302 20.7067 4.89009 20.773 4.91003 20.8385C4.99824 21.1302 4.94311 21.4081 4.8836 21.7083C4.85399 21.8598 4.82318 22.0163 4.81245 22.1768C4.76986 22.8194 4.71759 23.4728 4.66699 24.1047L4.66246 24.1631C4.64947 24.3243 4.63648 24.4855 4.62364 24.6466C4.49464 23.2008 4.01582 21.8865 3.19199 20.7242C2.68748 20.013 2.086 19.4046 1.40386 18.9154C1.37441 18.8942 1.34344 18.8753 1.30205 18.8507C1.28196 18.8391 1.2587 18.8252 1.23046 18.8075C1.18786 18.782 1.13318 18.7797 1.08922 18.8012C1.04421 18.8231 1.01325 18.8676 1.00811 18.9181C0.998897 19.0095 0.988172 19.098 0.976844 19.1898C0.954035 19.3779 0.932435 19.5555 0.931529 19.738C0.921408 21.6294 1.32154 23.4018 2.1212 25.0054C2.344 25.4528 2.63839 25.8398 2.99653 26.1561C3.35165 26.468 3.73486 26.652 4.16732 26.7181C4.17683 26.7198 4.19949 26.7336 4.20297 26.7363C4.22638 26.7832 4.2507 26.8304 4.27502 26.8777C4.36142 27.0446 4.45069 27.2172 4.4951 27.3903C4.5321 27.5367 4.5321 27.6966 4.5321 27.8661C4.5321 27.9282 4.5321 27.9907 4.53407 28.0521C4.57561 29.5173 4.63014 30.0275 4.86457 31.3366C4.72152 30.9474 4.54192 30.5571 4.31006 30.1816C3.37114 28.6619 2.17829 27.6303 0.663415 27.0284C0.567045 26.9896 0.470373 26.9616 0.358294 26.929L0.335939 26.9224C0.290473 26.9091 0.242288 26.8949 0.19078 26.8792C0.144257 26.8639 0.0912382 26.8743 0.0533247 26.9057C0.0155622 26.937 -0.00422532 26.9849 0.000759326 27.0347C0.011937 27.1387 0.0196406 27.2397 0.0267399 27.3384C0.042298 27.5547 0.0569499 27.7589 0.109364 27.961C0.598162 29.849 1.40718 31.3527 2.5825 32.5582C3.08505 33.0736 3.61463 33.369 4.20146 33.4616C4.34949 33.4847 4.53044 33.4876 4.83677 33.4686L4.92499 33.4633C4.93843 33.4625 4.95021 33.4618 4.96094 33.4618C4.9851 33.4618 4.98707 33.4618 5.00383 33.4865L5.41424 34.0501C5.41952 34.0575 5.42723 34.0842 5.43251 34.1027L5.43855 34.1229C5.86452 35.5669 6.39304 36.9578 7.01627 38.2778C6.73577 37.8907 6.42838 37.5372 6.0858 37.2048C4.51035 35.6762 1.81683 35.6319 1.51488 35.6319L1.47727 35.6322L1.45356 35.6366C1.37954 35.6629 1.33951 35.742 1.36232 35.8165C1.38332 35.8867 1.40296 35.9577 1.42546 36.0411C1.46851 36.1977 1.51322 36.3595 1.57591 36.516C1.87438 37.2619 2.35819 37.9794 3.09879 38.7748C3.60768 39.3201 4.18137 39.8731 4.9274 40.2228C5.74443 40.6064 6.48216 40.7001 7.21581 40.5122C7.34057 40.4794 7.48407 40.4379 7.60748 40.3578C7.69539 40.3015 7.71941 40.3033 7.80581 40.3676C7.90822 40.4437 8.01713 40.5076 8.12286 40.5696C8.18132 40.6039 8.24023 40.6384 8.29521 40.6732C8.30397 40.6806 8.3227 40.7113 8.32965 40.7226C8.98792 41.7962 9.71312 42.7941 10.4962 43.7043C10.0726 43.3962 9.63774 43.1732 9.17583 43.0247C7.76427 42.5699 6.28474 42.6278 4.8194 43.1944C4.60068 43.2791 4.36096 43.4075 4.34495 43.4166C4.31142 43.4386 4.28831 43.4743 4.28106 43.5152C4.27472 43.5554 4.28514 43.5965 4.30961 43.6279C4.35538 43.6874 4.39963 43.7472 4.44344 43.8066L4.45311 43.8196C4.55204 43.9543 4.66412 44.1067 4.7898 44.2417C5.35578 44.8485 6.05378 45.2553 6.72384 45.6045C7.64524 46.0826 8.58749 46.3401 9.5246 46.3703C9.56871 46.3719 9.61282 46.3728 9.65677 46.3728C10.5188 46.3728 11.1917 46.0886 11.7104 45.5075C11.7168 45.503 11.7393 45.4944 11.7517 45.4942C11.9499 45.5084 12.1382 45.5373 12.279 45.5607C12.3012 45.5646 12.3285 45.5779 12.3456 45.5933C13.2122 46.3605 14.13 47.0339 15.0887 47.607C14.9434 47.5639 14.7937 47.5265 14.6405 47.4964C13.6159 47.2994 12.5704 47.423 11.4222 47.8792C10.6477 48.1879 9.9273 48.6415 9.21994 49.2658C9.16163 49.317 9.15347 49.4051 9.20151 49.4661C9.4518 49.7847 9.77746 49.9631 10.0631 50.0954C10.7597 50.4191 11.5461 50.6263 12.468 50.7293C12.4707 50.7295 12.7669 50.7552 13.1823 50.7552C13.4821 50.7552 13.7611 50.7417 14.0111 50.7153C14.25 50.6902 14.4884 50.6493 14.7197 50.5937C15.7818 50.3351 16.5016 49.8034 16.914 48.9779C16.9214 48.9708 16.9531 48.9524 16.9933 48.9426C17.1849 48.895 17.3574 48.8615 17.5215 48.8396C17.5602 48.8334 17.6083 48.8438 17.6691 48.8683C18.4026 49.1509 19.1788 49.3863 19.9747 49.5679C19.9859 49.5706 19.9975 49.572 20.0091 49.572C20.0626 49.572 20.1118 49.5425 20.1378 49.4945C20.2138 49.3531 20.3064 49.2175 20.4129 49.0913C20.4463 49.0516 20.4562 48.9988 20.4398 48.9498C20.4241 48.9024 20.3842 48.8664 20.3331 48.8545Z" fill="#F1C71D"/>
<path d="M37.2974 29.3624L43.3666 23.4464C43.5723 23.2458 43.6466 22.9455 43.5577 22.6722C43.4689 22.3987 43.2326 22.1993 42.948 22.1581L34.5613 20.9402L30.81 13.3404C30.6828 13.0825 30.4203 12.9194 30.1328 12.9194C29.8454 12.9194 29.5827 13.0828 29.4557 13.3404L25.7057 20.9402L17.3176 22.1581C17.0332 22.1993 16.7968 22.3988 16.708 22.6722C16.619 22.9455 16.6931 23.2458 16.899 23.4464L22.9682 29.3624L21.5363 37.7153C21.4876 37.9985 21.6041 38.2849 21.8367 38.4538C22.069 38.6228 22.3772 38.6452 22.632 38.5113L30.1331 34.5682L37.6343 38.5113C37.7447 38.5695 37.8654 38.598 37.9854 38.598C38.1421 38.598 38.2978 38.5494 38.4294 38.4538C38.662 38.2851 38.7786 37.9985 38.7298 37.7153L37.2974 29.3624Z" fill="#F1C71D"/>
</g>
<defs>
<clipPath id="clip0_58_425">
<rect width="61" height="50" fill="white" transform="translate(0 0.757324)"/>
</clipPath>
</defs>
</svg>
