<svg width="43" height="43" viewBox="0 0 43 43" fill="none" xmlns="http://www.w3.org/2000/svg">
<path fill-rule="evenodd" clip-rule="evenodd" d="M25.7138 31.5067C25.7138 28.9586 27.369 26.7889 29.6594 26.0161C28.9361 26.9124 28.5023 28.0516 28.5023 29.2902V31.5069V35.6341C28.5023 39.5517 25.2966 42.7574 21.3788 42.7574C17.4608 42.7574 14.2551 39.5517 14.2551 35.6341V31.5069C14.2551 29.8517 12.9053 28.5023 11.2505 28.5023H7.1233C3.20567 28.5023 0 25.2966 0 21.3788C0 17.4612 3.20567 14.2556 7.1233 14.2556H11.2505C11.7411 14.2556 12.2058 14.1364 12.6164 13.9258L12.5781 13.9454C12.3434 15.6909 10.842 17.0437 9.03352 17.0437H7.1233C4.74476 17.0437 2.78851 19.0002 2.78851 21.3788C2.78851 23.7577 4.74476 25.7139 7.1233 25.7139H11.2505C14.4442 25.7139 17.0436 28.3136 17.0436 31.5071V35.6343C17.0436 38.0128 18.9999 39.9694 21.3788 39.9694C23.7575 39.9694 25.7138 38.0128 25.7138 35.6343V31.5067ZM35.6339 25.7136C38.013 25.7136 39.9691 23.7575 39.9691 21.3784C39.9691 18.9999 38.0128 17.0433 35.6339 17.0433H31.5068C28.313 17.0433 25.7138 14.4441 25.7138 11.2505V7.12329C25.7138 4.74461 23.7575 2.78816 21.3788 2.78816C18.9999 2.78816 17.0436 4.74442 17.0436 7.12329V11.2505C17.0436 13.7994 15.389 15.9694 13.097 16.7417C13.8211 15.8454 14.2551 14.7057 14.2551 13.4669V7.12329C14.2551 3.2058 17.4608 0 21.3788 0C25.2966 0 28.5023 3.2058 28.5023 7.12329V11.2505C28.5023 12.9053 29.8519 14.2552 31.5066 14.2552H35.6337C39.5513 14.2552 42.757 17.4608 42.757 21.3784C42.757 25.2964 39.5513 28.5019 35.6337 28.5019H31.5066C31.0303 28.5019 30.5796 28.6142 30.1789 28.8126C30.4112 27.081 31.8893 25.7363 33.678 25.7138L35.6339 25.7136ZM19.8319 31.5067C19.8319 26.7739 15.9835 22.9254 11.2506 22.9254H7.12349C6.28366 22.9254 5.57682 22.2186 5.57682 21.3786C5.57682 20.5391 6.28366 19.8319 7.12349 19.8319C10.6891 19.8319 13.0938 19.5843 16.4158 21.3786C17.4553 21.9405 18.4219 22.642 19.2873 23.4703C19.4756 23.6584 19.6571 23.8532 19.8319 24.0544C19.8319 22.5104 19.8319 20.7271 19.8319 18.7036C19.8319 16.5031 19.8319 14.0187 19.8319 11.2509V7.12369C19.8319 6.28422 20.539 5.57691 21.3788 5.57691C22.2182 5.57691 22.9253 6.28422 22.9253 7.12369V11.2509C22.9253 15.9834 26.7743 19.8321 31.5066 19.8321H35.6337C36.4736 19.8321 37.1804 20.5391 37.1804 21.3788C37.1804 22.2188 36.4736 22.9256 35.6337 22.9256C32.0683 22.9256 29.6625 23.1734 26.3412 21.3788C25.3021 20.8174 24.3352 20.1157 23.4701 19.2874C23.2822 19.0993 23.1003 18.9048 22.9255 18.7036C22.9255 20.7271 22.9255 22.5105 22.9255 24.0544C22.9255 29.0229 22.9255 31.5069 22.9255 31.5069V35.6341C22.9255 36.4739 22.2184 37.1809 21.379 37.1809C20.5392 37.1809 19.8321 36.4739 19.8321 35.6341L19.8319 31.5067Z" fill="#2CCAB9"/>
</svg>
