<svg width="200" height="44" viewBox="0 0 200 44" fill="none" xmlns="http://www.w3.org/2000/svg">
<path fill-rule="evenodd" clip-rule="evenodd" d="M25.7138 32.4062C25.7138 29.8581 27.369 27.6883 29.6594 26.9155C28.9361 27.8118 28.5023 28.951 28.5023 30.1896V32.4063V36.5335C28.5023 40.4511 25.2966 43.6568 21.3788 43.6568C17.4608 43.6568 14.2551 40.4511 14.2551 36.5335V32.4063C14.2551 30.7511 12.9053 29.4017 11.2505 29.4017H7.1233C3.20567 29.4017 0 26.196 0 22.2782C0 18.3606 3.20567 15.155 7.1233 15.155H11.2505C11.7411 15.155 12.2058 15.0358 12.6164 14.8252L12.5781 14.8448C12.3434 16.5903 10.842 17.9431 9.03352 17.9431H7.1233C4.74476 17.9431 2.78851 19.8997 2.78851 22.2782C2.78851 24.6571 4.74476 26.6134 7.1233 26.6134H11.2505C14.4442 26.6134 17.0436 29.213 17.0436 32.4065V36.5337C17.0436 38.9122 18.9999 40.8689 21.3788 40.8689C23.7575 40.8689 25.7138 38.9122 25.7138 36.5337V32.4062ZM35.6339 26.613C38.013 26.613 39.9691 24.6569 39.9691 22.2778C39.9691 19.8993 38.0128 17.9427 35.6339 17.9427H31.5068C28.313 17.9427 25.7138 15.3436 25.7138 12.1499V8.02271C25.7138 5.64402 23.7575 3.68758 21.3788 3.68758C18.9999 3.68758 17.0436 5.64383 17.0436 8.02271V12.1499C17.0436 14.6988 15.389 16.8688 13.097 17.6411C13.8211 16.7448 14.2551 15.6051 14.2551 14.3663V8.02271C14.2551 4.10522 17.4608 0.899414 21.3788 0.899414C25.2966 0.899414 28.5023 4.10522 28.5023 8.02271V12.1499C28.5023 13.8048 29.8519 15.1546 31.5066 15.1546H35.6337C39.5513 15.1546 42.757 18.3602 42.757 22.2778C42.757 26.1958 39.5513 29.4013 35.6337 29.4013H31.5066C31.0303 29.4013 30.5796 29.5136 30.1789 29.712C30.4112 27.9804 31.8893 26.6357 33.678 26.6132L35.6339 26.613ZM19.8319 32.4062C19.8319 27.6733 15.9835 23.8249 11.2506 23.8249H7.12349C6.28366 23.8249 5.57682 23.118 5.57682 22.278C5.57682 21.4385 6.28366 20.7313 7.12349 20.7313C10.6891 20.7313 13.0938 20.4837 16.4158 22.278C17.4553 22.8399 18.4219 23.5414 19.2873 24.3697C19.4756 24.5578 19.6571 24.7526 19.8319 24.9538C19.8319 23.4098 19.8319 21.6265 19.8319 19.603C19.8319 17.4025 19.8319 14.9182 19.8319 12.1503V8.02311C19.8319 7.18364 20.539 6.47633 21.3788 6.47633C22.2182 6.47633 22.9253 7.18364 22.9253 8.02311V12.1503C22.9253 16.8828 26.7743 20.7315 31.5066 20.7315H35.6337C36.4736 20.7315 37.1804 21.4385 37.1804 22.2782C37.1804 23.1182 36.4736 23.825 35.6337 23.825C32.0683 23.825 29.6625 24.0728 26.3412 22.2782C25.3021 21.7169 24.3352 21.0151 23.4701 20.1869C23.2822 19.9987 23.1003 19.8042 22.9255 19.603C22.9255 21.6265 22.9255 23.41 22.9255 24.9538C22.9255 29.9223 22.9255 32.4063 22.9255 32.4063V36.5335C22.9255 37.3733 22.2184 38.0804 21.379 38.0804C20.5392 38.0804 19.8321 37.3733 19.8321 36.5335L19.8319 32.4062Z" fill="#2CCAB9"/>
<path fill-rule="evenodd" clip-rule="evenodd" d="M191.142 23.0163V17.7354H194.019C195.104 17.7354 195.921 17.9624 196.47 18.4167C197.019 18.8712 197.294 19.5206 197.294 20.3663C197.294 21.1991 197.019 21.8489 196.47 22.3157C195.921 22.7825 195.104 23.0163 194.019 23.0163H191.142ZM63.7203 25.4956C63.7203 24.8142 63.569 24.2585 63.266 23.83C62.9632 23.4009 62.5657 23.0603 62.0736 22.8079C61.5815 22.5556 61.0452 22.3504 60.4649 22.1928C59.8846 22.035 59.2976 21.8866 58.7044 21.7481C58.1115 21.6093 57.5689 21.439 57.0766 21.2372C56.5844 21.0351 56.1903 20.7638 55.8935 20.4231C55.5972 20.0819 55.4489 19.628 55.4489 19.0602C55.4489 18.5681 55.5813 18.1236 55.8464 17.7259C56.1112 17.3285 56.5213 17.01 57.0765 16.7702C57.6317 16.5307 58.332 16.4102 59.1774 16.4102C59.7705 16.4102 60.3857 16.5017 61.0229 16.6847C61.6602 16.8677 62.2565 17.1485 62.8115 17.527L63.1713 16.751C62.6665 16.3854 62.0577 16.095 61.3444 15.8803C60.6315 15.6659 59.9093 15.5588 59.1772 15.5588C58.0922 15.5588 57.2028 15.7231 56.5085 16.0506C55.8147 16.3788 55.3036 16.8081 54.9755 17.338C54.6473 17.8677 54.4833 18.4487 54.4833 19.079C54.4833 19.7731 54.6316 20.3377 54.928 20.7731C55.2245 21.2084 55.619 21.5526 56.1108 21.8046C56.603 22.0573 57.1456 22.2625 57.7387 22.4201C58.3318 22.5776 58.9185 22.7257 59.4988 22.8648C60.0795 23.0033 60.6158 23.1736 61.1076 23.3757C61.5998 23.5778 61.9971 23.8491 62.3001 24.1898C62.6031 24.5302 62.7542 24.9849 62.7542 25.5527C62.7542 26.0318 62.6187 26.4673 62.3474 26.8585C62.076 27.25 61.6596 27.5622 61.098 27.7958C60.5364 28.0286 59.8144 28.1455 58.9306 28.1455C58.0473 28.1455 57.2116 27.9844 56.4228 27.6626C55.6341 27.3411 55.0125 26.9468 54.5584 26.48L54.124 27.199C54.6035 27.7289 55.2817 28.1612 56.1588 28.4956C57.0356 28.8302 57.9662 28.9972 58.9504 28.9972C60.0484 28.9972 60.9471 28.8364 61.6474 28.5143C62.3478 28.1928 62.8685 27.7641 63.209 27.2276C63.5499 26.6911 63.7203 26.114 63.7203 25.4956ZM74.2204 25.8952L68.2869 15.6534H67.4727V28.9025H68.4195V17.5994L73.9651 27.1423H74.4385L79.985 17.5666L80.0034 28.9025H80.9497L80.9309 15.6534H80.1358L74.2204 25.8952ZM93.8781 24.3603H86.9331L90.4 16.7171L93.8781 24.3603ZM96.9862 28.9025L90.8918 15.6534H89.9264L83.8316 28.9025H84.8728L86.564 25.174H94.2485L95.9454 28.9025H96.9862ZM100.834 23.7163V16.5241H104.619C106.045 16.5241 107.127 16.8363 107.865 17.4609C108.603 18.0859 108.972 18.972 108.972 20.1206C108.972 21.256 108.603 22.1392 107.865 22.7702C107.127 23.4009 106.045 23.7163 104.619 23.7163H100.834ZM107.478 24.0286C108.272 23.6692 108.884 23.1584 109.313 22.4957C109.742 21.8334 109.957 21.0415 109.957 20.1206C109.957 19.1737 109.742 18.3693 109.313 17.707C108.884 17.0445 108.272 16.5366 107.478 16.1835C106.682 15.8303 105.73 15.6536 104.619 15.6536H99.8683V28.9027H100.834V24.5685H104.619C105.072 24.5685 105.497 24.5386 105.897 24.4789L109.068 28.9027H110.165L106.844 24.2675C107.065 24.1992 107.276 24.1197 107.478 24.0286ZM117.287 28.9025V16.5239H122.057V15.6534H111.552V16.5239H116.322V28.9025H117.287ZM125.886 28.032V22.5995H132.945V21.7481H125.886V16.5241H133.778V15.6536H124.92V28.9027H134.062V28.0322L125.886 28.032ZM148.357 28.9025L145.036 24.2673C145.257 24.1991 145.469 24.1197 145.67 24.0286C146.465 23.6692 147.077 23.1584 147.506 22.4957C147.935 21.8334 148.15 21.0415 148.15 20.1206C148.15 19.1737 147.935 18.3693 147.506 17.707C147.077 17.0445 146.465 16.5366 145.67 16.1835C144.875 15.8303 143.922 15.6536 142.812 15.6536H138.061V28.9027H139.027V24.5685H142.812C143.264 24.5685 143.69 24.5386 144.09 24.4789L147.26 28.9027L148.357 28.9025ZM146.058 22.7702C145.32 23.4009 144.238 23.7163 142.812 23.7163H139.027V16.5241H142.812C144.238 16.5241 145.32 16.8363 146.058 17.4609C146.796 18.0859 147.165 18.972 147.165 20.1206C147.165 21.256 146.796 22.1392 146.058 22.7702ZM165.755 23.1866V21.1612H159.357V17.7167H166.568V15.6534H156.897V28.9025H166.834V26.8392H159.357V23.1866H165.755ZM184.59 28.9025L184.571 15.6534H182.546L177.374 24.4326L172.117 15.6534H170.092V28.9025H172.439V20.2388L176.792 27.3882H177.89L182.245 20.1242L182.262 28.9023L184.59 28.9025ZM188.681 15.6534V28.9025H191.142V25.0413H194.133C194.309 25.0413 194.482 25.0374 194.651 25.0287L197.35 28.9025H200L196.96 24.5634C197.025 24.5378 197.088 24.5107 197.151 24.4828C197.991 24.1108 198.638 23.5744 199.092 22.8744C199.546 22.174 199.773 21.3376 199.773 20.3663C199.773 19.3948 199.546 18.5557 199.092 17.8485C198.638 17.1423 197.991 16.5995 197.151 16.2212C196.312 15.8426 195.306 15.6534 194.133 15.6534H188.681Z" fill="white"/>
</svg>
