<svg width="200" height="43" viewBox="0 0 200 43" fill="none" xmlns="http://www.w3.org/2000/svg">
<path fill-rule="evenodd" clip-rule="evenodd" d="M25.7138 31.5067C25.7138 28.9586 27.369 26.7889 29.6594 26.0161C28.9361 26.9124 28.5023 28.0516 28.5023 29.2902V31.5069V35.6341C28.5023 39.5517 25.2966 42.7574 21.3788 42.7574C17.4608 42.7574 14.2551 39.5517 14.2551 35.6341V31.5069C14.2551 29.8517 12.9053 28.5023 11.2505 28.5023H7.1233C3.20567 28.5023 0 25.2966 0 21.3788C0 17.4612 3.20567 14.2556 7.1233 14.2556H11.2505C11.7411 14.2556 12.2058 14.1364 12.6164 13.9258L12.5781 13.9454C12.3434 15.6909 10.842 17.0437 9.03352 17.0437H7.1233C4.74476 17.0437 2.78851 19.0002 2.78851 21.3788C2.78851 23.7577 4.74476 25.7139 7.1233 25.7139H11.2505C14.4442 25.7139 17.0436 28.3136 17.0436 31.5071V35.6343C17.0436 38.0128 18.9999 39.9694 21.3788 39.9694C23.7575 39.9694 25.7138 38.0128 25.7138 35.6343V31.5067ZM35.6339 25.7136C38.013 25.7136 39.9691 23.7575 39.9691 21.3784C39.9691 18.9999 38.0128 17.0433 35.6339 17.0433H31.5068C28.313 17.0433 25.7138 14.4441 25.7138 11.2505V7.12329C25.7138 4.74461 23.7575 2.78816 21.3788 2.78816C18.9999 2.78816 17.0436 4.74442 17.0436 7.12329V11.2505C17.0436 13.7994 15.389 15.9694 13.097 16.7417C13.8211 15.8454 14.2551 14.7057 14.2551 13.4669V7.12329C14.2551 3.2058 17.4608 0 21.3788 0C25.2966 0 28.5023 3.2058 28.5023 7.12329V11.2505C28.5023 12.9053 29.8519 14.2552 31.5066 14.2552H35.6337C39.5513 14.2552 42.757 17.4608 42.757 21.3784C42.757 25.2964 39.5513 28.5019 35.6337 28.5019H31.5066C31.0303 28.5019 30.5796 28.6142 30.1789 28.8126C30.4112 27.081 31.8893 25.7363 33.678 25.7138L35.6339 25.7136ZM19.8319 31.5067C19.8319 26.7739 15.9835 22.9254 11.2506 22.9254H7.12349C6.28366 22.9254 5.57682 22.2186 5.57682 21.3786C5.57682 20.5391 6.28366 19.8319 7.12349 19.8319C10.6891 19.8319 13.0938 19.5843 16.4158 21.3786C17.4553 21.9405 18.4219 22.642 19.2873 23.4703C19.4756 23.6584 19.6571 23.8532 19.8319 24.0544C19.8319 22.5104 19.8319 20.7271 19.8319 18.7036C19.8319 16.5031 19.8319 14.0187 19.8319 11.2509V7.12369C19.8319 6.28422 20.539 5.57691 21.3788 5.57691C22.2182 5.57691 22.9253 6.28422 22.9253 7.12369V11.2509C22.9253 15.9834 26.7743 19.8321 31.5066 19.8321H35.6337C36.4736 19.8321 37.1804 20.5391 37.1804 21.3788C37.1804 22.2188 36.4736 22.9256 35.6337 22.9256C32.0683 22.9256 29.6625 23.1734 26.3412 21.3788C25.3021 20.8174 24.3352 20.1157 23.4701 19.2874C23.2822 19.0993 23.1003 18.9048 22.9255 18.7036C22.9255 20.7271 22.9255 22.5105 22.9255 24.0544C22.9255 29.0229 22.9255 31.5069 22.9255 31.5069V35.6341C22.9255 36.4739 22.2184 37.1809 21.379 37.1809C20.5392 37.1809 19.8321 36.4739 19.8321 35.6341L19.8319 31.5067Z" fill="#2CCAB9"/>
<path fill-rule="evenodd" clip-rule="evenodd" d="M191.142 22.1172V16.8363H194.019C195.104 16.8363 195.921 17.0632 196.47 17.5175C197.019 17.972 197.294 18.6214 197.294 19.4671C197.294 20.3 197.019 20.9498 196.47 21.4166C195.921 21.8834 195.104 22.1172 194.019 22.1172H191.142ZM63.7203 24.5965C63.7203 23.915 63.569 23.3594 63.266 22.9308C62.9632 22.5017 62.5657 22.1611 62.0736 21.9088C61.5815 21.6564 61.0452 21.4512 60.4649 21.2936C59.8846 21.1358 59.2976 20.9875 58.7044 20.849C58.1115 20.7101 57.5689 20.5398 57.0766 20.338C56.5844 20.1359 56.1903 19.8646 55.8935 19.524C55.5972 19.1828 55.4489 18.7289 55.4489 18.1611C55.4489 17.6689 55.5813 17.2244 55.8464 16.8268C56.1112 16.4293 56.5213 16.1109 57.0765 15.871C57.6317 15.6315 58.332 15.5111 59.1774 15.5111C59.7705 15.5111 60.3857 15.6026 61.0229 15.7856C61.6602 15.9686 62.2565 16.2493 62.8115 16.6279L63.1713 15.8519C62.6665 15.4862 62.0577 15.1958 61.3444 14.9812C60.6315 14.7667 59.9093 14.6597 59.1772 14.6597C58.0922 14.6597 57.2028 14.8239 56.5085 15.1515C55.8147 15.4796 55.3036 15.9089 54.9755 16.4388C54.6473 16.9685 54.4833 17.5495 54.4833 18.1798C54.4833 18.874 54.6316 19.4385 54.928 19.8739C55.2245 20.3092 55.619 20.6535 56.1108 20.9054C56.603 21.1582 57.1456 21.3633 57.7387 21.521C58.3318 21.6784 58.9185 21.8265 59.4988 21.9656C60.0795 22.1041 60.6158 22.2744 61.1076 22.4765C61.5998 22.6787 61.9971 22.95 62.3001 23.2906C62.6031 23.631 62.7542 24.0857 62.7542 24.6535C62.7542 25.1326 62.6187 25.5682 62.3474 25.9594C62.076 26.3508 61.6596 26.663 61.098 26.8966C60.5364 27.1294 59.8144 27.2463 58.9306 27.2463C58.0473 27.2463 57.2116 27.0853 56.4228 26.7634C55.6341 26.4419 55.0125 26.0477 54.5584 25.5809L54.124 26.2998C54.6035 26.8297 55.2817 27.262 56.1588 27.5964C57.0356 27.931 57.9662 28.0981 58.9504 28.0981C60.0484 28.0981 60.9471 27.9372 61.6474 27.6152C62.3478 27.2937 62.8685 26.8649 63.209 26.3284C63.5499 25.7919 63.7203 25.2148 63.7203 24.5965ZM74.2204 24.996L68.2869 14.7542H67.4727V28.0033H68.4195V16.7002L73.9651 26.2432H74.4385L79.985 16.6675L80.0034 28.0033H80.9497L80.9309 14.7542H80.1358L74.2204 24.996ZM93.8781 23.4611H86.9331L90.4 15.818L93.8781 23.4611ZM96.9862 28.0033L90.8918 14.7542H89.9264L83.8316 28.0033H84.8728L86.564 24.2748H94.2485L95.9454 28.0033H96.9862ZM100.834 22.8172V15.6249H104.619C106.045 15.6249 107.127 15.9371 107.865 16.5617C108.603 17.1867 108.972 18.0728 108.972 19.2214C108.972 20.3568 108.603 21.24 107.865 21.8711C107.127 22.5017 106.045 22.8172 104.619 22.8172H100.834ZM107.478 23.1294C108.272 22.77 108.884 22.2592 109.313 21.5965C109.742 20.9342 109.957 20.1423 109.957 19.2214C109.957 18.2746 109.742 17.4701 109.313 16.8078C108.884 16.1453 108.272 15.6374 107.478 15.2843C106.682 14.9311 105.73 14.7544 104.619 14.7544H99.8683V28.0035H100.834V23.6693H104.619C105.072 23.6693 105.497 23.6394 105.897 23.5797L109.068 28.0035H110.165L106.844 23.3683C107.065 23.3001 107.276 23.2205 107.478 23.1294ZM117.287 28.0033V15.6247H122.057V14.7542H111.552V15.6247H116.322V28.0033H117.287ZM125.886 27.1328V21.7004H132.945V20.849H125.886V15.6249H133.778V14.7544H124.92V28.0035H134.062V27.133L125.886 27.1328ZM148.357 28.0033L145.036 23.3681C145.257 23.2999 145.469 23.2205 145.67 23.1294C146.465 22.77 147.077 22.2592 147.506 21.5965C147.935 20.9342 148.15 20.1423 148.15 19.2214C148.15 18.2746 147.935 17.4701 147.506 16.8078C147.077 16.1453 146.465 15.6374 145.67 15.2843C144.875 14.9311 143.922 14.7544 142.812 14.7544H138.061V28.0035H139.027V23.6693H142.812C143.264 23.6693 143.69 23.6394 144.09 23.5797L147.26 28.0035L148.357 28.0033ZM146.058 21.8711C145.32 22.5017 144.238 22.8172 142.812 22.8172H139.027V15.6249H142.812C144.238 15.6249 145.32 15.9371 146.058 16.5617C146.796 17.1867 147.165 18.0728 147.165 19.2214C147.165 20.3568 146.796 21.24 146.058 21.8711ZM165.755 22.2875V20.2621H159.357V16.8175H166.568V14.7542H156.897V28.0033H166.834V25.9401H159.357V22.2875H165.755ZM184.59 28.0033L184.571 14.7542H182.546L177.374 23.5335L172.117 14.7542H170.092V28.0033H172.439V19.3396L176.792 26.4891H177.89L182.245 19.225L182.262 28.0032L184.59 28.0033ZM188.681 14.7542V28.0033H191.142V24.1422H194.133C194.309 24.1422 194.482 24.1382 194.651 24.1295L197.35 28.0033H200L196.96 23.6642C197.025 23.6386 197.088 23.6115 197.151 23.5837C197.991 23.2116 198.638 22.6753 199.092 21.9753C199.546 21.2749 199.773 20.4384 199.773 19.4671C199.773 18.4956 199.546 17.6566 199.092 16.9494C198.638 16.2431 197.991 15.7003 197.151 15.322C196.312 14.9435 195.306 14.7542 194.133 14.7542H188.681Z" fill="#26262C"/>
</svg>
